<svg xmlns="http://www.w3.org/2000/svg" viewBox="0 0 986 370.69"><defs><style>.cls-1,.cls-2{fill:#fff;}.cls-2{stroke:#fff;stroke-width:8px;}.cls-14,.cls-2{stroke-miterlimit:10;}.cls-3{font-size:145.92px;font-family:Aleo-Bold, Aleo;font-weight:700;}.cls-4{letter-spacing:-0.18em;}.cls-5{letter-spacing:-0.04em;}.cls-6{letter-spacing:0.12em;}.cls-7{font-size:28.83px;font-family:PTSans-Caption, PT Sans Caption;letter-spacing:0.21em;}.cls-8{letter-spacing:0.18em;}.cls-9{letter-spacing:0.21em;}.cls-10{letter-spacing:0.19em;}.cls-11{letter-spacing:0.17em;}.cls-12{letter-spacing:0.21em;}.cls-13{letter-spacing:0.17em;}.cls-14{fill:none;stroke:#ed1c24;stroke-width:4px;}</style></defs><title>Asset 8</title><g id="Layer_2" data-name="Layer 2"><g id="Layer_8" data-name="Layer 8"><g id="Layer_9" data-name="Layer 9"><ellipse cx="138.34" cy="167.35" rx="138.34" ry="167.35"/><path class="cls-1" d="M60.93,137.36S144.29,117.48,216,138l-3.76,7.13s-59.48-13-149.11-.87Z"/><path class="cls-1" d="M212.83,241.19a42.72,42.72,0,0,1-7.9,1.08,41,41,0,0,1-26.43-7.13c-4.52-3.09-11.17-7.25-19.67-8.95-10-2-15.52,3.41-18.44,8.29a12.94,12.94,0,0,0-.3,12.93c3.09,5.49,10.41,12.47,27.74,14.78,23.4,3.12,36.45-9,41.07-14.43a21.26,21.26,0,0,0,2.77-4.25Z"/><polygon class="cls-1" points="74.49 124.16 92.07 65.55 146.29 77.27 182.92 65.55 200.5 122.69 74.49 124.16"/><circle class="cls-2" cx="100" cy="185.69" r="26"/><circle class="cls-2" cx="176" cy="185.69" r="26"/><path class="cls-1" d="M126,183.19s13.5-12,24,0v5.5s-7-11-24-1Z"/><path class="cls-1" d="M63.5,241.19a43,43,0,0,0,7.9,1.08,41,41,0,0,0,26.44-7.13c4.51-3.09,11.17-7.25,19.66-8.95,10-2,15.53,3.41,18.44,8.29a12.89,12.89,0,0,1,.3,12.93c-3.09,5.49-10.41,12.47-27.74,14.78-23.39,3.12-36.45-9-41.07-14.43a21.7,21.7,0,0,1-2.77-4.25Z"/></g><text class="cls-3" transform="translate(327.09 143.71)">PRI<tspan class="cls-4" x="237.26" y="0">V</tspan><tspan class="cls-5" x="329.04" y="0">A</tspan><tspan x="441.4" y="0">CY</tspan><tspan class="cls-6"><tspan x="0" y="126.21">WIJZER</tspan></tspan></text><text class="cls-7" transform="translate(331.87 309.14)">VE<tspan class="cls-8" x="47.07" y="0">R</tspan><tspan x="71.2" y="0">AN</tspan><tspan class="cls-9" x="123.09" y="0">T</tspan><tspan class="cls-10" x="146.58" y="0">W</tspan><tspan x="178.38" y="0">OORD O</tspan><tspan class="cls-11" x="327.12" y="0">P</tspan><tspan class="cls-12" x="349.72" y="0" xml:space="preserve"> HE</tspan><tspan class="cls-13" x="414.26" y="0">T</tspan><tspan class="cls-12" x="436.74" y="0" xml:space="preserve"> INTERNE</tspan><tspan class="cls-11" x="617.54" y="0">T</tspan></text><line class="cls-14" x1="484" y1="368.69" x2="814" y2="368.69"/></g></g></svg>