<svg xmlns="http://www.w3.org/2000/svg" xmlns:xlink="http://www.w3.org/1999/xlink" viewBox="0 0 1920 1080"><defs><style>.cls-1{fill:none;}.cls-2{fill:#fff;}.cls-3{fill:url(#linear-gradient);}.cls-4{fill:url(#linear-gradient-2);}.cls-5{fill:url(#linear-gradient-3);}.cls-6{fill:url(#linear-gradient-4);}.cls-7{fill:url(#linear-gradient-5);}.cls-8{fill:url(#linear-gradient-6);}.cls-9{fill:url(#linear-gradient-7);}.cls-10{fill:url(#linear-gradient-8);}.cls-11{fill:url(#linear-gradient-9);}.cls-12{fill:url(#linear-gradient-10);}.cls-13{fill:url(#linear-gradient-11);}.cls-14{fill:url(#linear-gradient-12);}.cls-15{fill:url(#linear-gradient-13);}.cls-16{fill:url(#linear-gradient-14);}.cls-17{fill:url(#linear-gradient-15);}</style><linearGradient id="linear-gradient" x1="449.7" y1="885.25" x2="1475.68" y2="885.25" gradientUnits="userSpaceOnUse"><stop offset="0" stop-color="#ff4b2b"/><stop offset="1" stop-color="#db0033"/></linearGradient><linearGradient id="linear-gradient-2" x1="449.7" y1="715.59" x2="1475.68" y2="715.59" xlink:href="#linear-gradient"/><linearGradient id="linear-gradient-3" x1="449.7" y1="546.63" x2="1475.68" y2="546.63" xlink:href="#linear-gradient"/><linearGradient id="linear-gradient-4" x1="449.7" y1="585.65" x2="1475.68" y2="585.65" xlink:href="#linear-gradient"/><linearGradient id="linear-gradient-5" x1="480.42" y1="710.69" x2="1431" y2="710.69" xlink:href="#linear-gradient"/><linearGradient id="linear-gradient-6" x1="449.7" y1="710.69" x2="1475.68" y2="710.69" xlink:href="#linear-gradient"/><linearGradient id="linear-gradient-7" x1="480.42" y1="820.94" x2="1431" y2="820.94" xlink:href="#linear-gradient"/><linearGradient id="linear-gradient-8" x1="449.7" y1="820.94" x2="1475.68" y2="820.94" xlink:href="#linear-gradient"/><linearGradient id="linear-gradient-9" x1="480.42" y1="543.9" x2="1431" y2="543.9" xlink:href="#linear-gradient"/><linearGradient id="linear-gradient-10" x1="449.7" y1="543.9" x2="1475.68" y2="543.9" xlink:href="#linear-gradient"/><linearGradient id="linear-gradient-11" x1="480.42" y1="639.86" x2="1431" y2="639.86" xlink:href="#linear-gradient"/><linearGradient id="linear-gradient-12" x1="449.7" y1="639.86" x2="1475.68" y2="639.86" xlink:href="#linear-gradient"/><linearGradient id="linear-gradient-13" x1="449.7" y1="650.2" x2="1475.68" y2="650.2" xlink:href="#linear-gradient"/><linearGradient id="linear-gradient-14" x1="449.7" y1="669.16" x2="1475.68" y2="669.16" xlink:href="#linear-gradient"/><linearGradient id="linear-gradient-15" x1="449.7" y1="765.99" x2="1475.68" y2="765.99" xlink:href="#linear-gradient"/></defs><title>Artboard 1</title><g id="Layer_1_copy_4" data-name="Layer 1 copy 4"><path class="cls-1" d="M1088.24,981.64l-.28,1c69.91-52.42,127.3-109.38,174.44-168l-.57-.54C1214.9,872.53,1157.78,929.33,1088.24,981.64Z"/><path class="cls-1" d="M1280.53,790.05l.59.55a945.29,945.29,0,0,0,92.11-149.82l-1.18.36A943.88,943.88,0,0,1,1280.53,790.05Z"/><path class="cls-1" d="M1396.94,586.6l1.15-.36.69-1.66-.85-.35Z"/><path class="cls-2" d="M1397.93,584.23l.85.35q2-4.83,4-9.62l-.85-.35Q1399.93,579.41,1397.93,584.23Z"/><path class="cls-2" d="M1387.31,608.77l1.16-.36q5-11.13,9.62-22.17l-1.15.36Q1392.3,597.64,1387.31,608.77Z"/><path class="cls-2" d="M1261.83,814.1l.57.54,2.47-3.09-.56-.54Z"/><path class="cls-3" d="M1261.83,814.1l-26.67-25.25a888.35,888.35,0,0,1-128.68,130.9l-18.24,61.89C1157.78,929.33,1214.9,872.53,1261.83,814.1Z"/><path class="cls-4" d="M1280.53,790.05a943.88,943.88,0,0,0,91.52-148.91l-50,15.58a873.64,873.64,0,0,1-68.27,107.95Z"/><path class="cls-5" d="M960.61,1019.55s-451.73-217-480.19-821.66c0,0,451.73-291.67,949.71,0,0,0,12.15,152-54.4,337.56L1411.44,550c77-205.9,63.3-376.85,63.3-376.85-537.47-314.8-1025,0-1025,0C480.42,825.82,968,1060,968,1060q41.64-23.41,78.8-48.75l-15.13-35.53Q998,998.42,960.61,1019.55Z"/><path class="cls-6" d="M1349.12,601.48l47.82-14.88,1-2.37-35.31-14.4Q1356.28,585.53,1349.12,601.48Z"/><path class="cls-7" d="M1322,656.72l-137.19,42.69,68.92,65.26A873.64,873.64,0,0,0,1322,656.72Z"/><path class="cls-8" d="M1322,656.72l-137.19,42.69,68.92,65.26A873.64,873.64,0,0,0,1322,656.72Z"/><path class="cls-9" d="M1235.16,788.85l-70.46-66.71-58.22,197.61A888.35,888.35,0,0,0,1235.16,788.85Z"/><path class="cls-10" d="M1235.16,788.85l-70.46-66.71-58.22,197.61A888.35,888.35,0,0,0,1235.16,788.85Z"/><path class="cls-11" d="M1430.13,197.89c-498-291.67-949.71,0-949.71,0,28.46,604.68,480.19,821.66,480.19,821.66q37.47-21.09,71-43.83L745,302.52a13.19,13.19,0,0,1,17.12-17.38l613.59,250.31C1442.28,349.9,1430.13,197.89,1430.13,197.89Z"/><path class="cls-12" d="M1430.13,197.89c-498-291.67-949.71,0-949.71,0,28.46,604.68,480.19,821.66,480.19,821.66q37.47-21.09,71-43.83L745,302.52a13.19,13.19,0,0,1,17.12-17.38l613.59,250.31C1442.28,349.9,1430.13,197.89,1430.13,197.89Z"/><path class="cls-13" d="M788.16,335.48l259.19,608.77,78.87-267.71a12.23,12.23,0,0,1,8.09-8.22l214.81-66.84q7.16-15.93,13.5-31.65Zm250.51,475.26a13.39,13.39,0,0,1-5.06,1.06,13.19,13.19,0,0,1-12.24-8l-7-16.34a12.16,12.16,0,0,1-4.34-5.28L918.85,567.89A12.21,12.21,0,0,1,939,554.79a13.13,13.13,0,0,1,8.13,7.39l98.47,231.26A13.19,13.19,0,0,1,1038.67,810.74Z"/><path class="cls-14" d="M788.16,335.48l259.19,608.77,78.87-267.71a12.23,12.23,0,0,1,8.09-8.22l214.81-66.84q7.16-15.93,13.5-31.65Zm250.51,475.26a13.39,13.39,0,0,1-5.06,1.06,13.19,13.19,0,0,1-12.24-8l-7-16.34a12.16,12.16,0,0,1-4.34-5.28L918.85,567.89A12.21,12.21,0,0,1,939,554.79a13.13,13.13,0,0,1,8.13,7.39l98.47,231.26A13.19,13.19,0,0,1,1038.67,810.74Z"/><path class="cls-2" d="M1349.12,601.48l-214.81,66.84a12.23,12.23,0,0,0-8.09,8.22l-78.87,267.71L788.16,335.48l574.46,234.35,35.31,14.4q2-4.82,4-9.62l-620-252.94L1061.6,978.73l85.13-289a13.2,13.2,0,0,1,8.73-8.86l231.85-72.15q5-11.13,9.63-22.17Z"/><path class="cls-15" d="M1349.12,601.48l-214.81,66.84a12.23,12.23,0,0,0-8.09,8.22l-78.87,267.71L788.16,335.48l574.46,234.35,35.31,14.4q2-4.82,4-9.62l-620-252.94L1061.6,978.73l85.13-289a13.2,13.2,0,0,1,8.73-8.86l231.85-72.15q5-11.13,9.63-22.17Z"/><path class="cls-2" d="M929.87,555.21a13.22,13.22,0,0,1,9.17-.42,12.21,12.21,0,0,0-20.19,13.1l91.22,214.26a12.16,12.16,0,0,0,4.34,5.28L922.9,572.52A13.2,13.2,0,0,1,929.87,555.21Z"/><path class="cls-16" d="M929.87,555.21a13.22,13.22,0,0,1,9.17-.42,12.21,12.21,0,0,0-20.19,13.1l91.22,214.26a12.16,12.16,0,0,0,4.34,5.28L922.9,572.52A13.2,13.2,0,0,1,929.87,555.21Z"/><path class="cls-2" d="M1261.83,814.1l2.48-3.09L1166,717.88l-1.25,4.26,70.46,66.71Z"/><path class="cls-17" d="M1261.83,814.1l2.48-3.09L1166,717.88l-1.25,4.26,70.46,66.71Z"/><path class="cls-2" d="M1088.24,981.64l18.24-61.89,58.22-197.61,1.25-4.26-15.41-14.59a13.19,13.19,0,0,1,18.13-19.16l16.14,15.28L1322,656.72l50-15.58,1.18-.36q8-16.26,15.24-32.37l-1.16.36-231.85,72.15a13.2,13.2,0,0,0-8.73,8.86l-85.13,289L781.85,321.67l620,252.94.85.35q5-12.36,9.58-24.58l-.87-.36-35.71-14.57L762.14,285.14A13.19,13.19,0,0,0,745,302.52l286.63,673.2,15.13,35.53.22.53q21.15-14.32,41-29.16Z"/><path class="cls-2" d="M947.17,562.18a13.19,13.19,0,1,0-24.27,10.34l91.51,214.91,7,16.34a13.19,13.19,0,0,0,12.24,8,13.39,13.39,0,0,0,5.06-1.06,13.19,13.19,0,0,0,7-17.3Z"/><path class="cls-2" d="M1253.73,764.67l-68.92-65.26-16.14-15.28a13.19,13.19,0,0,0-18.13,19.16L1166,717.88,1264.31,811l.56.54q8.34-10.45,16.25-20.95l-.59-.55Z"/></g></svg>