<svg xmlns="http://www.w3.org/2000/svg" xmlns:xlink="http://www.w3.org/1999/xlink" viewBox="0 0 1920 1080"><defs><style>.cls-1{fill:none;}.cls-2{fill:url(#linear-gradient);}.cls-3{fill:url(#linear-gradient-2);}.cls-4{fill:url(#linear-gradient-3);}.cls-5{fill:#fff;}</style><linearGradient id="linear-gradient" x1="447" y1="763.76" x2="1473.23" y2="763.76" gradientUnits="userSpaceOnUse"><stop offset="0" stop-color="#ff4b2b"/><stop offset="1" stop-color="#db0033"/></linearGradient><linearGradient id="linear-gradient-2" y1="546.5" x2="1473.23" y2="546.5" xlink:href="#linear-gradient"/><linearGradient id="linear-gradient-3" y1="834.49" x2="1473.23" y2="834.49" xlink:href="#linear-gradient"/></defs><title>Artboard 2</title><g id="Layer_2" data-name="Layer 2"><path class="cls-1" d="M1293.76,768.39h.54a944.59,944.59,0,0,0,53-84h-.53A943.29,943.29,0,0,1,1293.76,768.39Z"/><path class="cls-1" d="M1358.48,662.8h.52c70.45-133.89,98.15-263.58,108.64-355.81h-.47C1456.66,399.26,1428.93,528.93,1358.48,662.8Z"/><path class="cls-1" d="M1202.06,879h.56a941.69,941.69,0,0,0,72.1-84v-.71A942.35,942.35,0,0,1,1202.06,879Z"/><path class="cls-2" d="M854.77,648.45H840.84V879.07H964.72V648.45h-110ZM902.88,865a10.42,10.42,0,1,1,10.42-10.41A10.42,10.42,0,0,1,902.88,865ZM885.14,662.8a5.29,5.29,0,0,1,2.56-.68h30.16a5.29,5.29,0,0,1,2.56.68,5.38,5.38,0,0,1-2.56,10.12H887.7a5.38,5.38,0,0,1-2.56-10.12Z"/><path class="cls-3" d="M1058,900.6a10.8,10.8,0,1,1,0-21.6h102.74V790H1007.6V768.39h286.16a943.29,943.29,0,0,0,53-84H1007.6V662.8h350.88c70.45-133.87,98.18-263.54,108.69-355.81H894.48c-4.31,0-7.81,4.17-7.81,9.31V608.86H865.08V316.3c0-17,13.19-30.91,29.4-30.91H1469.4c6.35-69.19,2.89-112.44,2.89-112.44C934.69-141.94,447,173,447,173,477.72,825.76,965.41,1060,965.41,1060c85.11-47.88,156-102,215.09-159.4H1058Zm170.53-191.91a16.87,16.87,0,1,1-16.87,16.86A16.86,16.86,0,0,1,1228.54,708.69ZM986.31,662.8V882.3A18.38,18.38,0,0,1,968,900.66H837.61a18.38,18.38,0,0,1-18.37-18.36V645.22a18.39,18.39,0,0,1,18.37-18.37H968a18.39,18.39,0,0,1,18.36,18.37Z"/><path class="cls-4" d="M1274.72,790h-92.37v89h19.71a942.35,942.35,0,0,0,72.66-84.66Z"/><path class="cls-5" d="M968,626.85H837.61a18.39,18.39,0,0,0-18.37,18.37V882.3a18.38,18.38,0,0,0,18.37,18.36H968a18.38,18.38,0,0,0,18.36-18.36V645.22A18.39,18.39,0,0,0,968,626.85Zm-3.23,35.95V879.07H840.84V648.45H964.72Z"/><circle class="cls-5" cx="902.88" cy="854.55" r="10.41"/><path class="cls-5" d="M887.7,672.92h30.16a5.38,5.38,0,0,0,2.56-10.12,5.29,5.29,0,0,0-2.56-.68H887.7a5.29,5.29,0,0,0-2.56.68,5.38,5.38,0,0,0,2.56,10.12Z"/><path class="cls-5" d="M1007.6,662.8v21.59h339.68q6-10.82,11.72-21.59H1007.6Z"/><path class="cls-5" d="M865.08,316.3V608.86h21.59V316.3c0-5.14,3.5-9.31,7.81-9.31h573.16q1.27-11.17,2.22-21.6H894.48C878.27,285.39,865.08,299.26,865.08,316.3Z"/><path class="cls-5" d="M1202.62,879h-20.27V790h92.37v5.07q10.13-13.29,19.58-26.66H1007.6V790h153.15v89H1058a10.8,10.8,0,1,0,0,21.6h123Q1192.12,889.88,1202.62,879Z"/><path class="cls-5" d="M1228.54,742.42a16.87,16.87,0,1,0-16.87-16.87A16.86,16.86,0,0,0,1228.54,742.42Z"/></g></svg>