<svg xmlns="http://www.w3.org/2000/svg" xmlns:xlink="http://www.w3.org/1999/xlink" viewBox="0 0 1920 1080"><defs><style>.cls-1{fill:none;}.cls-2{fill:url(#linear-gradient);}.cls-3{fill:url(#linear-gradient-2);}.cls-4{fill:url(#linear-gradient-3);}.cls-5{fill:#fff;}</style><linearGradient id="linear-gradient" x1="442" y1="539.9" x2="1477.42" y2="539.9" gradientUnits="userSpaceOnUse"><stop offset="0" stop-color="#ff4b2b"/><stop offset="1" stop-color="#db0033"/></linearGradient><linearGradient id="linear-gradient-2" y1="326.42" x2="1477.42" y2="326.42" xlink:href="#linear-gradient"/><linearGradient id="linear-gradient-3" y1="620.4" x2="1477.42" y2="620.4" xlink:href="#linear-gradient"/></defs><title>Artboard 12</title><g id="Layer_7" data-name="Layer 7"><path class="cls-1" d="M1221.17,857h1.07C1327.56,741.46,1390,616,1427,503.94v-1.66C1390.36,614.63,1327.75,740.67,1221.17,857Z"/><path class="cls-2" d="M839,851.29V296.05A27.09,27.09,0,0,1,866.06,269h555.23a27.08,27.08,0,0,1,27,27.05V427C1485.42,274.88,1476.47,163,1476.47,163,934.05-154.7,442,163,442,163c31,658.65,523.05,895,523.05,895,95.13-53.51,172.68-114.8,235.89-179.66H866.06A27.08,27.08,0,0,1,839,851.29Z"/><path class="cls-3" d="M1427,296.05a5.66,5.66,0,0,0-5.66-5.65H866.06a5.66,5.66,0,0,0-5.66,5.65v66.4H1427ZM906.69,342.58a17.2,17.2,0,1,1,17.2-17.19A17.19,17.19,0,0,1,906.69,342.58Zm54.26,0a17.2,17.2,0,1,1,17.2-17.19A17.19,17.19,0,0,1,961,342.58Zm54.26,0a17.2,17.2,0,1,1,17.19-17.19A17.2,17.2,0,0,1,1015.21,342.58Z"/><path class="cls-4" d="M1427,383.85H860.4V851.29a5.67,5.67,0,0,0,5.66,5.66h355.11C1327.75,740.67,1390.36,614.63,1427,502.28Z"/><path class="cls-5" d="M1221.17,857H866.06a5.67,5.67,0,0,1-5.66-5.66V383.85H848.2v-21.4h12.2v-66.4a5.66,5.66,0,0,1,5.66-5.65h555.23a5.66,5.66,0,0,1,5.66,5.65v66.4h8.91v21.4H1427V503.94c8.38-25.45,15.44-50.21,21.39-74V296.05a27.08,27.08,0,0,0-27-27.05H866.06A27.09,27.09,0,0,0,839,296.05V851.29a27.08,27.08,0,0,0,27.06,27.05h336.07q10.32-10.64,20.11-21.39Z"/><polygon class="cls-5" points="1435.86 383.85 1435.86 362.45 1426.95 362.45 860.4 362.45 848.2 362.45 848.2 383.85 860.4 383.85 1426.95 383.85 1435.86 383.85"/><circle class="cls-5" cx="906.69" cy="325.39" r="17.19" transform="translate(-50.5 217.02) rotate(-13.28)"/><circle class="cls-5" cx="960.95" cy="325.39" r="17.19" transform="translate(51.37 774.8) rotate(-45)"/><circle class="cls-5" cx="1015.21" cy="325.39" r="17.19" transform="translate(67.26 813.16) rotate(-45)"/></g></svg>