<svg xmlns="http://www.w3.org/2000/svg" xmlns:xlink="http://www.w3.org/1999/xlink" viewBox="0 0 1920 1080"><defs><style>.cls-1{fill:none;}.cls-2{fill:url(#linear-gradient);}.cls-3{fill:url(#linear-gradient-2);}.cls-4{fill:url(#linear-gradient-3);}.cls-5{fill:url(#linear-gradient-4);}.cls-6{fill:url(#linear-gradient-5);}.cls-7{fill:url(#linear-gradient-6);}.cls-8{fill:#fff;}</style><linearGradient id="linear-gradient" x1="452" y1="529.31" x2="1487.42" y2="529.31" gradientUnits="userSpaceOnUse"><stop offset="0" stop-color="#ff4b2b"/><stop offset="1" stop-color="#db0033"/></linearGradient><linearGradient id="linear-gradient-2" x1="452" y1="614.2" x2="1487.42" y2="614.2" xlink:href="#linear-gradient"/><linearGradient id="linear-gradient-3" x1="452" y1="792.03" x2="1487.42" y2="792.03" xlink:href="#linear-gradient"/><linearGradient id="linear-gradient-4" x1="452" y1="550.9" x2="1487.42" y2="550.9" xlink:href="#linear-gradient"/><linearGradient id="linear-gradient-5" x1="452" y1="632.45" x2="1487.42" y2="632.45" xlink:href="#linear-gradient"/><linearGradient id="linear-gradient-6" x1="452" y1="335.57" x2="1487.42" y2="335.57" xlink:href="#linear-gradient"/></defs><title>Artboard 29</title><g id="Layer_12" data-name="Layer 12"><path class="cls-1" d="M1359.23,691.05l.83.44A990.77,990.77,0,0,0,1414,578.73l-.75-.32A975.26,975.26,0,0,1,1359.23,691.05Z"/><path class="cls-2" d="M831.09,466.71A62.61,62.61,0,1,0,885.32,498,62.52,62.52,0,0,0,831.09,466.71Zm40.18,73.48a9.68,9.68,0,0,1-9.68-9.67c0-20.17-20.15-30.57-28.75-30.57a9.68,9.68,0,0,1,0-19.36c16.79,0,48.11,17.15,48.11,49.93A9.67,9.67,0,0,1,871.27,540.19Z"/><path class="cls-3" d="M1171,674.61a62.6,62.6,0,1,0-60.5-16A62.54,62.54,0,0,0,1171,674.61ZM1146.69,565.8c16.65-2.13,49.9,10.91,54,43.42a9.68,9.68,0,0,1-19.2,2.46c-2.56-20-23.87-27.77-32.4-26.68a9.68,9.68,0,1,1-2.45-19.2Z"/><path class="cls-4" d="M879.15,785.39A62.6,62.6,0,1,0,916,734.81,62.65,62.65,0,0,0,879.15,785.39Zm55.57-43c16.58-2.69,50.24,9.23,55.48,41.58a9.68,9.68,0,1,1-19.11,3.1c-3.23-19.91-24.78-26.95-33.27-25.58a9.67,9.67,0,0,1-3.1-19.1Z"/><path class="cls-5" d="M1321.37,681.52a81.89,81.89,0,0,1,17.16-109L1223.3,397.75a83.17,83.17,0,0,1-12.32,8.73A81.88,81.88,0,0,1,1103.11,383L906.42,496.91a81.3,81.3,0,0,1,3.92,53.51,84.33,84.33,0,0,1-3.11,9.33l-9.24,17a81.56,81.56,0,0,1-25.76,23.45c-.63.36-1.25.71-1.88,1l48.91,111.85a82.17,82.17,0,0,1,88.68,31.07l81.13-80.77a82,82,0,1,1,13.39,14l-84.86,84.46a82,82,0,1,1-116.23-41.36l-49-112a82,82,0,1,1-21.28-161.12,82.29,82.29,0,0,1,65.62,32.81L1093.84,366a81.92,81.92,0,1,1,142.92,17L1355,562.23a82,82,0,0,1,65.33-1.82c80.23-210.51,66.17-386.4,66.17-386.4C944.05-143.7,452,174,452,174c31,658.65,523.05,895,523.05,895,181.13-101.89,298.54-232,374.53-361.16A81.5,81.5,0,0,1,1321.37,681.52Z"/><path class="cls-6" d="M1355.32,584.16a62.61,62.61,0,0,0,3.91,106.89,975.26,975.26,0,0,0,54-112.64A62.56,62.56,0,0,0,1355.32,584.16Z"/><path class="cls-7" d="M1169.85,273a62.59,62.59,0,1,0,54.23,31.23A62.55,62.55,0,0,0,1169.85,273ZM1210,346.45a9.68,9.68,0,0,1-9.68-9.68c0-20.16-20.16-30.56-28.76-30.56a9.68,9.68,0,1,1,0-19.36c16.79,0,48.11,17.15,48.11,49.92A9.67,9.67,0,0,1,1210,346.45Z"/><path class="cls-8" d="M832.84,480.59a9.68,9.68,0,0,0,0,19.36c8.6,0,28.75,10.4,28.75,30.57a9.68,9.68,0,0,0,19.36,0C881,497.74,849.63,480.59,832.84,480.59Z"/><path class="cls-8" d="M1171.59,286.85a9.68,9.68,0,1,0,0,19.36c8.6,0,28.76,10.4,28.76,30.56a9.68,9.68,0,1,0,19.35,0C1219.7,304,1188.38,286.85,1171.59,286.85Z"/><path class="cls-8" d="M1240.83,294.5a81.94,81.94,0,0,0-147,71.51L896.71,480.16a81.94,81.94,0,1,0-65.48,131.11,81.43,81.43,0,0,0,21.14-2.8l-2.27-5.18,17.69-7.86,2.56,5.84c.63-.34,1.25-.69,1.88-1A81.56,81.56,0,0,0,898,576.77l9.24-17a84.33,84.33,0,0,0,3.11-9.33,81.3,81.3,0,0,0-3.92-53.51L1103.11,383A81.88,81.88,0,0,0,1211,406.48a83.17,83.17,0,0,0,12.32-8.73l-9.91-15,16.16-10.66,7.21,10.94a82,82,0,0,0,4.07-88.51ZM891.64,545.43a62.63,62.63,0,0,1-60.41,46.48,62.6,62.6,0,1,1,54.09-94A62.18,62.18,0,0,1,891.64,545.43Zm338.75-193.74A62.63,62.63,0,0,1,1170,398.17a62.6,62.6,0,1,1,54.1-94A62.2,62.2,0,0,1,1230.39,351.69Z"/><path class="cls-8" d="M1359.23,691.05a62.58,62.58,0,0,1,54-112.64l.75.32q3.64-9,7.06-18l-.74-.31a82,82,0,0,0-65.33,1.82L1236.76,383l-7.21-10.94-16.16,10.66,9.91,15,115.23,174.72a81.89,81.89,0,0,0-17.16,109,81.5,81.5,0,0,0,28.21,26.32l.86.46q4.92-8.4,9.62-16.81Z"/><path class="cls-8" d="M937.82,761.45c8.49-1.37,30,5.67,33.27,25.58a9.68,9.68,0,1,0,19.11-3.1c-5.24-32.35-38.9-44.27-55.48-41.58a9.67,9.67,0,0,0,3.1,19.1Z"/><path class="cls-8" d="M850.1,603.29l2.27,5.18,49,112a81.89,81.89,0,0,0-34.86,104.74A81.94,81.94,0,0,0,974.66,866.9a81.88,81.88,0,0,0,42.94-105l-5.83,5.81L998,754.05l9.9-9.86a82.17,82.17,0,0,0-88.68-31.07L870.35,601.27l-2.56-5.84ZM998.61,766.61A62.6,62.6,0,1,1,916,734.81,62.54,62.54,0,0,1,998.61,766.61Z"/><path class="cls-8" d="M1149.14,585c8.53-1.09,29.84,6.67,32.4,26.68a9.68,9.68,0,0,0,19.2-2.46c-4.15-32.51-37.4-45.55-54-43.42a9.68,9.68,0,1,0,2.45,19.2Z"/><path class="cls-8" d="M1011.77,767.69l5.83-5.81,84.86-84.46A81.89,81.89,0,0,0,1212.71,672a82,82,0,0,0-.38-115.89,81.94,81.94,0,0,0-123.26,107.36l-81.13,80.77-9.9,9.86Zm98.4-197.6a62.6,62.6,0,1,1,.3,88.51A62.55,62.55,0,0,1,1110.17,570.09Z"/></g></svg>