<svg xmlns="http://www.w3.org/2000/svg" xmlns:xlink="http://www.w3.org/1999/xlink" viewBox="0 0 1920 1080"><defs><style>.cls-1{fill:none;}.cls-2{fill:url(#linear-gradient);}.cls-3{fill:url(#linear-gradient-2);}.cls-4{fill:url(#linear-gradient-3);}.cls-5{fill:url(#linear-gradient-4);}.cls-6{fill:url(#linear-gradient-5);}.cls-7{fill:#fff;}</style><linearGradient id="linear-gradient" x1="442" y1="539.9" x2="1477.42" y2="539.9" gradientUnits="userSpaceOnUse"><stop offset="0" stop-color="#ff4b2b"/><stop offset="1" stop-color="#db0033"/></linearGradient><linearGradient id="linear-gradient-2" y1="549.47" x2="1477.42" y2="549.47" xlink:href="#linear-gradient"/><linearGradient id="linear-gradient-3" y1="666.02" x2="1477.42" y2="666.02" xlink:href="#linear-gradient"/><linearGradient id="linear-gradient-4" y1="495.77" x2="1477.42" y2="495.77" xlink:href="#linear-gradient"/><linearGradient id="linear-gradient-5" y1="424.36" x2="1477.42" y2="424.36" xlink:href="#linear-gradient"/></defs><title>Artboard 13</title><g id="Layer_8" data-name="Layer 8"><path class="cls-1" d="M1448.12,427.85c6.68-27.08,11.92-52.88,16-77v-1.29C1460.1,374.06,1454.86,400.3,1448.12,427.85Z"/><path class="cls-1" d="M1274.06,794h.56a954.55,954.55,0,0,0,67.83-101.89l-.06-.06A949.34,949.34,0,0,1,1274.06,794Z"/><path class="cls-1" d="M1355.55,668.69q5.7-10.55,11.07-21.07-5.38,10.51-11.1,21Z"/><path class="cls-2" d="M759,784.39V312.61c0-15.75,9.26-29.16,22.17-34.27l691.45,7.72c7.66-75.38,3.85-123,3.85-123C934.05-154.7,442,163,442,163c31,658.65,523.05,895,523.05,895,122.83-69.09,216.35-151.14,287.53-237.09H792.68C774.11,820.91,759,804.53,759,784.39Z"/><polygon class="cls-3" points="1042.36 525.41 1045.77 522.06 901.98 411.06 877.16 391.91 783.82 319.85 783.82 779.1 1014.94 552.31 1042.36 525.41"/><path class="cls-4" d="M1200,552.31l-14.54-14.26-18.49,14.26-33.79,26.09a11.64,11.64,0,0,1-14.39,0L1085,552.31,1066.47,538l-14.55,14.27L805.61,794h468.45a949.34,949.34,0,0,0,68.33-102Z"/><path class="cls-5" d="M1464.15,322.88,1374,392.45l-24.81,19.15-143.1,110.47,3.4,3.34,27.42,26.9,118.58,116.35q5.73-10.53,11.1-21a1025.71,1025.71,0,0,0,81.5-219.77c6.74-27.55,12-53.79,16-78.29Z"/><polygon class="cls-6" points="1427.17 311.24 810.18 307.41 1125.82 541.32 1427.17 311.24"/><path class="cls-7" d="M1274.06,794H805.61l246.31-241.7L1066.47,538,1085,552.31l33.79,26.09a11.64,11.64,0,0,0,14.39,0l33.79-26.09,18.49-14.26L1200,552.31l142.43,139.75.06.06q6.77-11.72,13.1-23.43l0,0L1236.94,552.31l-27.42-26.9-3.4-3.34,143.1-110.47L1374,392.45l90.12-69.57v28c4-23.29,6.85-45,8.95-64.78h-.48l-691.45-7.72C768.26,283.45,759,296.86,759,312.61V784.39c0,20.14,15.11,36.52,33.68,36.52h460.63q11-13.39,21.31-26.9Zm153.11-482.77L1125.82,541.32,810.18,307.41ZM783.82,779.1V319.85l93.34,72.06L902,411.06l143.8,111-3.41,3.35-27.42,26.9Z"/></g></svg>