<svg xmlns="http://www.w3.org/2000/svg" xmlns:xlink="http://www.w3.org/1999/xlink" viewBox="0 0 1920 1080"><defs><style>.cls-1{fill:none;}.cls-2{fill:url(#linear-gradient);}.cls-3{fill:url(#linear-gradient-2);}.cls-4{fill:url(#linear-gradient-3);}.cls-5{fill:url(#linear-gradient-4);}.cls-6{fill:url(#linear-gradient-5);}.cls-7{fill:url(#linear-gradient-6);}.cls-8{fill:url(#linear-gradient-7);}.cls-9{fill:url(#linear-gradient-8);}.cls-10{fill:url(#linear-gradient-9);}.cls-11{fill:url(#linear-gradient-10);}.cls-12{fill:#fff;}</style><linearGradient id="linear-gradient" x1="450" y1="152.43" x2="1470.56" y2="152.43" gradientUnits="userSpaceOnUse"><stop offset="0" stop-color="#ff4b2b"/><stop offset="1" stop-color="#db0033"/></linearGradient><linearGradient id="linear-gradient-2" x1="450" y1="212.39" x2="1470.56" y2="212.39" xlink:href="#linear-gradient"/><linearGradient id="linear-gradient-3" x1="450" y1="156.43" x2="1470.56" y2="156.43" xlink:href="#linear-gradient"/><linearGradient id="linear-gradient-4" x1="450" y1="218.46" x2="1470.56" y2="218.46" xlink:href="#linear-gradient"/><linearGradient id="linear-gradient-5" x1="450" y1="702.35" x2="1470.56" y2="702.35" xlink:href="#linear-gradient"/><linearGradient id="linear-gradient-6" x1="450" y1="434.61" x2="1470.56" y2="434.61" xlink:href="#linear-gradient"/><linearGradient id="linear-gradient-7" x1="450" y1="509.45" x2="1470.55" y2="509.45" xlink:href="#linear-gradient"/><linearGradient id="linear-gradient-8" x1="450" y1="863.97" x2="1470.56" y2="863.97" xlink:href="#linear-gradient"/><linearGradient id="linear-gradient-9" x1="450" y1="477.04" x2="1470.56" y2="477.04" xlink:href="#linear-gradient"/><linearGradient id="linear-gradient-10" x1="450" y1="636.32" x2="1470.56" y2="636.32" xlink:href="#linear-gradient"/></defs><title>Artboard 3</title><g id="Layer_3" data-name="Layer 3"><path class="cls-1" d="M967.32,1053.3h3.13c144.62-82.59,247.74-183.39,321.18-287l-.65-.47C1217.17,869.77,1113.31,970.83,967.32,1053.3Z"/><path class="cls-1" d="M963.5,1053.3c-7.77-3.93-37.23-19.44-78.43-48.48,0,19.38,0,37-.05,48.48H963.5Z"/><path class="cls-2" d="M1401.28,147.66H1289.37a4,4,0,0,0-4,4v1.59a4,4,0,0,0,4,4h113.51a4,4,0,0,0,4-4v-1.59a4,4,0,0,0-4-4Z"/><path class="cls-3" d="M833.66,273.12h1.59a4,4,0,0,0,4-4V155.63a4,4,0,0,0-4-4h-1.59a4,4,0,0,0-4,4V269.15A4,4,0,0,0,833.66,273.12Z"/><path class="cls-4" d="M850.37,161.21h96.8a4,4,0,0,0,4-4v-1.6a4,4,0,0,0-4-4H849.82a14.92,14.92,0,0,1,.55,4Z"/><path class="cls-5" d="M1397.31,168.35v96.8a4,4,0,0,0,4,4h1.59a4,4,0,0,0,4-4V167.8a15.42,15.42,0,0,1-4,.55Z"/><path class="cls-6" d="M953.15,703.14v-1.59a4,4,0,0,0-4-4H835.66a4,4,0,0,0-4,4v1.59a4,4,0,0,0,4,4H949.17A4,4,0,0,0,953.15,703.14Z"/><path class="cls-7" d="M1265.61,509.38V435.7l9.82-24.5a137.88,137.88,0,0,0,3.78-14.57c7.73-38.34-1.21-77.7-25.18-110.84-24.19-33.46-60.74-56.57-102.91-65.07a175.34,175.34,0,0,0-34.54-3.47c-74.34,0-138.14,48.79-151.69,116a136.77,136.77,0,0,0,2.53,64.29l13,23.24v88.58c0,78.62,64,142.6,142.6,142.6S1265.61,588,1265.61,509.38Z"/><path class="cls-8" d="M1065.52,697V668.14c-60.78-22.07-105.41-78.12-110.8-145.07A46.46,46.46,0,0,1,952,431.45l-3-7a164.08,164.08,0,0,1-9.89-96.34c7.9-39.19,30.3-74.47,63.08-99.34,32.07-24.34,72.68-37.74,114.34-37.74a201.22,201.22,0,0,1,39.73,4c48.66,9.81,90.92,36.59,119,75.42,28.31,39.14,38.83,85.81,29.64,131.4a161.84,161.84,0,0,1-9.2,30.16,46.46,46.46,0,0,1-4.43,91C1286,588.7,1243,643.92,1183.94,666.84V697c45.64,8.52,86.35,26.53,119.31,51.2,190-280.94,166.37-576,166.37-576Q1442,156,1414.49,142a15.08,15.08,0,0,1,3.51,9.67h0V265.15a15.15,15.15,0,0,1-15.12,15.12h-1.59a15.14,15.14,0,0,1-15.12-15.12v-96.8h-96.8a15.15,15.15,0,0,1-15.12-15.12v-1.59a15.14,15.14,0,0,1,15.12-15.12h113.51c.29,0,.58,0,.87,0C895.81-115.66,450,172.17,450,172.17,471.35,625.84,714.61,876.22,859.21,985.9V910.18C859.21,807.63,945.31,719.43,1065.52,697Zm-247-539.74v-1.6a15.13,15.13,0,0,1,15.12-15.11H947.17a15.13,15.13,0,0,1,15.12,15.11v1.6a15.14,15.14,0,0,1-15.12,15.12h-96.8v96.8a15.13,15.13,0,0,1-15.12,15.11h-1.59a15.13,15.13,0,0,1-15.12-15.11V157.24Zm18.73,561h-1.61a15.13,15.13,0,0,1-15.11-15.11h0V589.63a15.13,15.13,0,0,1,15.11-15.11h1.6a15.13,15.13,0,0,1,15.11,15.11v96.81h96.8a15.13,15.13,0,0,1,15.12,15.11v1.59a15.13,15.13,0,0,1-15.12,15.12Z"/><path class="cls-9" d="M1291,765.87c-59.35-42.5-133.29-51.87-133.29-51.87V674.64a169.47,169.47,0,0,1-65.92.67v17.5s-.23,21.19,0,21.19S894.45,744.69,885.32,894.33c-.11,1.89-.2,61.77-.25,110.49,41.2,29,70.66,44.55,78.43,48.48h3.82C1113.31,970.83,1217.17,869.77,1291,765.87Z"/><path class="cls-10" d="M940.78,477a20.24,20.24,0,0,0,13.38,19V458A20.22,20.22,0,0,0,940.78,477Z"/><path class="cls-11" d="M841.23,686.44V589.63a4,4,0,0,0-4-4h-1.6a4,4,0,0,0-4,4V687a15.47,15.47,0,0,1,4-.54Z"/><path class="cls-10" d="M1304.66,477a20.23,20.23,0,0,0-12.8-18.78v37.57A20.24,20.24,0,0,0,1304.66,477Z"/><path class="cls-12" d="M885.07,1004.82c0-48.72.14-108.6.25-110.49C894.45,744.69,1092,714,1091.77,714s0-21.19,0-21.19v-17.5a169.47,169.47,0,0,0,65.92-.67V714s73.94,9.37,133.29,51.87l.65.47q6.25-8.83,12.25-17.7l-.63-.47c-33-24.67-73.67-42.68-119.31-51.2V666.84C1243,643.92,1286,588.7,1291.31,523a46.46,46.46,0,0,0,4.43-91,161.84,161.84,0,0,0,9.2-30.16c9.19-45.59-1.33-92.26-29.64-131.4-28.07-38.83-70.33-65.61-119-75.42a201.22,201.22,0,0,0-39.73-4c-41.66,0-82.27,13.4-114.34,37.74-32.78,24.87-55.18,60.15-63.08,99.34a164.08,164.08,0,0,0,9.89,96.34l3,7a46.46,46.46,0,0,0,2.71,91.62c5.39,66.95,50,123,110.8,145.07V697C945.31,719.43,859.21,807.63,859.21,910.18V985.9Zm406.79-542.24v-4.33a20.18,20.18,0,0,1,0,37.57Zm-337.7,0V496a20.18,20.18,0,0,1,0-38Zm26.25,46.8V420.8l-13-23.24a136.77,136.77,0,0,1-2.53-64.29c13.55-67.23,77.35-116,151.69-116a175.34,175.34,0,0,1,34.54,3.47c42.17,8.5,78.72,31.61,102.91,65.07,24,33.14,32.91,72.5,25.18,110.84a137.88,137.88,0,0,1-3.78,14.57l-9.82,24.5v73.68c0,78.62-64,142.6-142.6,142.6S980.41,588,980.41,509.38Z"/><path class="cls-12" d="M970.45,1053.3H885c0,8.08,0,13.15,0,13.7l479-2c0-.43,0-3.3,0-8H964C966.16,1055.78,968.3,1054.54,970.45,1053.3Z"/><path class="cls-12" d="M833.66,284.26h1.59a15.13,15.13,0,0,0,15.12-15.11v-96.8h96.8a15.14,15.14,0,0,0,15.12-15.12v-1.6a15.13,15.13,0,0,0-15.12-15.11H833.66a15.13,15.13,0,0,0-15.12,15.11v1.6h0V269.15A15.13,15.13,0,0,0,833.66,284.26Zm113.51-132.6a4,4,0,0,1,4,4v1.6a4,4,0,0,1-4,4h-96.8v-5.58a14.92,14.92,0,0,0-.55-4ZM829.68,171.79V155.63a4,4,0,0,1,4-4h1.59a4,4,0,0,1,4,4V269.15a4,4,0,0,1-4,4h-1.59a4,4,0,0,1-4-4Z"/><path class="cls-12" d="M964.29,703.14v-1.59a15.13,15.13,0,0,0-15.12-15.11h-96.8V589.63a15.13,15.13,0,0,0-15.11-15.11h-1.6a15.13,15.13,0,0,0-15.11,15.11V703.14h0a15.13,15.13,0,0,0,15.11,15.11H949.17A15.13,15.13,0,0,0,964.29,703.14ZM831.68,589.63a4,4,0,0,1,4-4h1.6a4,4,0,0,1,4,4v96.81h-5.57a15.47,15.47,0,0,0-4,.54Zm5.58,117.49h-1.6a4,4,0,0,1-4-4v-1.59a4,4,0,0,1,4-4H949.17a4,4,0,0,1,4,4v1.59a4,4,0,0,1-4,4H837.26Z"/><path class="cls-12" d="M1401.29,136.52H1289.37a15.14,15.14,0,0,0-15.12,15.12v1.59a15.15,15.15,0,0,0,15.12,15.12h96.8v96.8a15.14,15.14,0,0,0,15.12,15.12h1.59A15.15,15.15,0,0,0,1418,265.15V151.64h0a15.12,15.12,0,0,0-14.25-15.08c-.29,0-.58,0-.87,0Zm5.57,128.63a4,4,0,0,1-4,4h-1.59a4,4,0,0,1-4-4v-96.8h5.57a15.42,15.42,0,0,0,4-.55Zm0-113.51v1.59a4,4,0,0,1-4,4H1289.37a4,4,0,0,1-4-4v-1.59a4,4,0,0,1,4-4h113.51A4,4,0,0,1,1406.86,151.64Z"/></g></svg>