<svg xmlns="http://www.w3.org/2000/svg" xmlns:xlink="http://www.w3.org/1999/xlink" viewBox="0 0 1920 1080"><defs><style>.cls-1{fill:none;}.cls-2{fill:url(#linear-gradient);}.cls-3{fill:url(#linear-gradient-2);}.cls-4{fill:url(#linear-gradient-3);}.cls-5{fill:url(#linear-gradient-5);}.cls-6{fill:url(#linear-gradient-6);}.cls-7{fill:url(#linear-gradient-8);}.cls-8{fill:url(#linear-gradient-9);}.cls-9{fill:url(#linear-gradient-10);}.cls-10{fill:url(#linear-gradient-11);}.cls-11{fill:url(#linear-gradient-12);}.cls-12{fill:url(#linear-gradient-14);}.cls-13{fill:url(#linear-gradient-15);}.cls-14{fill:url(#linear-gradient-16);}.cls-15{fill:url(#linear-gradient-18);}.cls-16{fill:url(#linear-gradient-21);}.cls-17{fill:url(#linear-gradient-22);}.cls-18{fill:#fff;}</style><linearGradient id="linear-gradient" x1="442" y1="516.45" x2="1477.42" y2="516.45" gradientUnits="userSpaceOnUse"><stop offset="0" stop-color="#ff4b2b"/><stop offset="1" stop-color="#db0033"/></linearGradient><linearGradient id="linear-gradient-2" x1="442" y1="647.7" x2="1477.42" y2="647.7" xlink:href="#linear-gradient"/><linearGradient id="linear-gradient-3" x1="442" y1="380.54" x2="1477.42" y2="380.54" xlink:href="#linear-gradient"/><linearGradient id="linear-gradient-5" x1="442" y1="384.75" x2="1477.42" y2="384.75" xlink:href="#linear-gradient"/><linearGradient id="linear-gradient-6" x1="442" y1="539.9" x2="1477.42" y2="539.9" xlink:href="#linear-gradient"/><linearGradient id="linear-gradient-8" x1="442" y1="515.52" x2="1477.42" y2="515.52" xlink:href="#linear-gradient"/><linearGradient id="linear-gradient-9" x1="442" y1="374.13" x2="1477.42" y2="374.13" xlink:href="#linear-gradient"/><linearGradient id="linear-gradient-10" x1="442" y1="778.02" x2="1477.42" y2="778.02" xlink:href="#linear-gradient"/><linearGradient id="linear-gradient-11" x1="442" y1="782.98" x2="1477.42" y2="782.98" xlink:href="#linear-gradient"/><linearGradient id="linear-gradient-12" x1="442" y1="495.96" x2="1477.42" y2="495.96" xlink:href="#linear-gradient"/><linearGradient id="linear-gradient-14" x1="442" y1="652.99" x2="1477.42" y2="652.99" xlink:href="#linear-gradient"/><linearGradient id="linear-gradient-15" x1="442" y1="738.3" x2="1477.42" y2="738.3" xlink:href="#linear-gradient"/><linearGradient id="linear-gradient-16" x1="442" y1="581.43" x2="1477.42" y2="581.43" xlink:href="#linear-gradient"/><linearGradient id="linear-gradient-18" x1="442" y1="648.47" x2="1477.42" y2="648.47" xlink:href="#linear-gradient"/><linearGradient id="linear-gradient-21" x1="442" y1="668.02" x2="1477.42" y2="668.02" xlink:href="#linear-gradient"/><linearGradient id="linear-gradient-22" x1="442" y1="789.34" x2="1477.42" y2="789.34" xlink:href="#linear-gradient"/></defs><title>Artboard 15</title><g id="Layer_9" data-name="Layer 9"><path class="cls-1" d="M1307.67,747.4l.41.36q5.4-8,10.59-16l-.5-.18Q1313,739.48,1307.67,747.4Z"/><path class="cls-1" d="M1329.66,713.34l.47.18a979.11,979.11,0,0,0,63-120.89h-.46A968.59,968.59,0,0,1,1329.66,713.34Z"/><path class="cls-1" d="M1401.56,571.56h.46c10.38-25.38,19.4-50.35,27.21-74.66L1429,496C1421.12,520.6,1412.06,545.86,1401.56,571.56Z"/><path class="cls-1" d="M1271.57,797.22l.59.3q12.39-16,23.81-32.22c-.13-.14-.26-.29-.4-.43Q1284.05,781.1,1271.57,797.22Z"/><path class="cls-2" d="M1203.82,571.56H1312q-.13-7.57-.5-15.07a41.47,41.47,0,0,1-10.16-78.95q-1.77-8.22-3.83-16.2c-38,10.64-79.94,16.65-123.45,17.48v62.5A41.63,41.63,0,0,1,1203.82,571.56Z"/><path class="cls-3" d="M1174.08,621.55v63.82c43.39.83,85.2,6.8,123.13,17.4,8.91-34.1,14-71.41,14.79-110.14H1203.47A41.64,41.64,0,0,1,1174.08,621.55Z"/><path class="cls-4" d="M1084.45,384.75A41.53,41.53,0,0,1,1043,426.23c-.86,0-1.72,0-2.57-.09q-2.67,7.35-5.06,14.95c36.12,10.11,76.08,15.83,117.66,16.66V303.34c-28.27,3.8-55.21,22.86-78,55A41.3,41.3,0,0,1,1084.45,384.75Z"/><path class="cls-2" d="M1123.26,571.56A41.63,41.63,0,0,1,1153,541.32v-62.5c-43.51-.83-85.44-6.83-123.46-17.48-8.8,34.15-13.76,71.48-14.49,110.22Z"/><path class="cls-5" d="M1049.25,404.16a20.43,20.43,0,0,0,14.13-19.41,20.09,20.09,0,0,0-1.08-6.47,20.43,20.43,0,0,0-16.41-13.7,20.06,20.06,0,0,0-2.92-.23,20.41,20.41,0,1,0,6.28,39.81Z"/><path class="cls-6" d="M932.44,772.33q-6.72-8.12-12.86-16.7a299.28,299.28,0,0,1-.6-347.55q6.1-8.61,12.8-16.74c55.05-67,138.5-109.78,231.76-109.78s176.71,42.8,231.75,109.78q6.69,8.13,12.81,16.74a300.13,300.13,0,0,1,30.83,54.7c47.91-170,37.54-299.77,37.54-299.77C934.05-154.7,442,163,442,163c31,658.65,523.05,895,523.05,895,94.78-53.31,172.09-114.35,235.18-178.93a300.33,300.33,0,0,1-36.69,2.24C1070.65,881.31,987.49,838.86,932.44,772.33Z"/><path class="cls-4" d="M1266.82,381.92c-25.54-46.45-58.14-73.93-92.74-78.58V457.75c41.58-.83,81.54-6.55,117.66-16.66A325.66,325.66,0,0,0,1266.82,381.92Z"/><path class="cls-7" d="M1297.59,515.52A20.41,20.41,0,1,0,1326.47,497a20.42,20.42,0,0,0-28.88,18.53Z"/><path class="cls-8" d="M1285.29,371.76a347.91,347.91,0,0,1,26.57,63.11,319.59,319.59,0,0,0,51.2-22.31q7.89-4.33,15-9a279.61,279.61,0,0,0-137.77-90.2C1256.87,328.1,1272.05,347.68,1285.29,371.76Z"/><path class="cls-9" d="M1281.12,758.83a20.13,20.13,0,0,0-3.49.32,20.41,20.41,0,0,0-16.91,20.08,20.1,20.1,0,0,0,2,8.83,20.49,20.49,0,0,0,8.81,9.16q12.5-16.11,24-32.35A20.32,20.32,0,0,0,1281.12,758.83Z"/><path class="cls-10" d="M1281.12,737.76a40.36,40.36,0,0,1,5.07.32q2.73-7.41,5.16-15.09c-36-10-75.84-15.72-117.27-16.55V859.53c27.53-3.7,53.8-21.87,76.26-52.54a41.45,41.45,0,0,1,30.78-69.23Z"/><path class="cls-11" d="M1391,420.36q-8.45,5.5-17.78,10.67a342.53,342.53,0,0,1-55.54,24.1q2.46,9.42,4.53,19.13a41.47,41.47,0,0,1,10.31,80.11q.43,8.55.59,17.19h68.46c10.5-25.7,19.56-51,27.4-75.54A278.05,278.05,0,0,0,1391,420.36Z"/><path class="cls-8" d="M1015.22,434.87q2.46-7.8,5.18-15.34a41.46,41.46,0,0,1,37.46-73.48,193.37,193.37,0,0,1,28.88-32.65A279.52,279.52,0,0,0,949,403.6q7.15,4.62,15,9A319.59,319.59,0,0,0,1015.22,434.87Z"/><path class="cls-12" d="M1333.07,592.63c-.83,40.83-6.22,80.24-15.72,116.33,4.17,1.39,8.26,2.87,12.31,4.38a968.59,968.59,0,0,0,63-120.71Z"/><path class="cls-13" d="M1311.47,729.19q-2.7,8.5-5.71,16.7c.65.49,1.29,1,1.91,1.51q5.37-7.92,10.5-15.86Q1314.84,730.34,1311.47,729.19Z"/><path class="cls-14" d="M1180.58,592.63a20.27,20.27,0,0,0,.8-21.07,20.55,20.55,0,0,0-7.3-7.57,20.25,20.25,0,0,0-21.08,0,20.55,20.55,0,0,0-7.3,7.57,20.27,20.27,0,0,0,.8,21.07,20.4,20.4,0,0,0,34.08,0Z"/><path class="cls-11" d="M1009.4,455.13A342.41,342.41,0,0,1,953.87,431c-6.24-3.43-12.15-7-17.78-10.67a277.13,277.13,0,0,0-51.17,151.2H994C994.72,530.72,1000,491.27,1009.4,455.13Z"/><path class="cls-15" d="M996.13,630.68a20.37,20.37,0,0,0,4.85,37.51,20.14,20.14,0,0,0,5.12.68h0a20.41,20.41,0,1,0-10-38.19Z"/><path class="cls-3" d="M1123.61,592.63H1015.08q.17,7.79.56,15.48a41.47,41.47,0,0,1,10,76.93q1.93,9,4.21,17.73c37.93-10.6,79.75-16.57,123.14-17.4V621.55A41.64,41.64,0,0,1,1123.61,592.63Z"/><path class="cls-10" d="M1060.25,781c25.54,46.44,58.15,73.93,92.75,78.58V706.44c-41.43.83-81.26,6.5-117.27,16.55A325.75,325.75,0,0,0,1060.25,781Z"/><path class="cls-16" d="M1009.73,709c-1.65-6.25-3.17-12.61-4.57-19a41.47,41.47,0,0,1-10.59-81.29q-.41-7.95-.56-16H885a277.15,277.15,0,0,0,51.78,150.78q8.14-5.29,17.13-10.25A341.76,341.76,0,0,1,1009.73,709Z"/><path class="cls-17" d="M1041.79,791.11a347.23,347.23,0,0,1-26.19-61.92A320.4,320.4,0,0,0,964,751.63q-7.5,4.13-14.33,8.49a279.63,279.63,0,0,0,137,89.36C1070.21,834.77,1055,815.19,1041.79,791.11Z"/><path class="cls-18" d="M1401.56,571.56H1333.1q-.16-8.64-.59-17.19a41.47,41.47,0,0,0-10.31-80.11q-2.07-9.7-4.53-19.13a342.53,342.53,0,0,0,55.54-24.1q9.35-5.14,17.78-10.67A278.05,278.05,0,0,1,1429,496l.27.88q5.41-16.83,10.08-33.21c-.13-.31-.25-.61-.38-.91a300.13,300.13,0,0,0-30.83-54.7q-6.12-8.61-12.81-16.74c-55-67-138.49-109.78-231.75-109.78s-176.71,42.8-231.76,109.78q-6.67,8.13-12.8,16.74a299.28,299.28,0,0,0,.6,347.55q6.15,8.58,12.86,16.7c55,66.53,138.21,109,231.1,109a300.33,300.33,0,0,0,36.69-2.24c.46-.05,71.53-81.75,71.34-81.85a20.49,20.49,0,0,1-8.81-9.16,20.1,20.1,0,0,1-2-8.83,20.41,20.41,0,0,1,16.91-20.08,20.1,20.1,0,0,1,17.94,5.72c.14.14,12.24-17.35,12.1-17.47-.62-.52-1.26-1-1.91-1.51q3-8.19,5.71-16.7,3.38,1.15,6.7,2.35c.17.06,11.64-18.14,11.49-18.2-4.05-1.51-8.14-3-12.31-4.38,9.5-36.09,14.89-75.5,15.72-116.33h59.59ZM1297.21,702.77c-37.93-10.6-79.74-16.57-123.13-17.4V621.55a41.64,41.64,0,0,0,29.39-28.92H1312C1311.18,631.36,1306.12,668.67,1297.21,702.77ZM1318,495.12a20.18,20.18,0,0,1,8.47,1.87,20.21,20.21,0,1,1-8.47-1.87Zm60.11-91.52q-7.17,4.62-15,9a319.59,319.59,0,0,1-51.2,22.31,347.91,347.91,0,0,0-26.57-63.11c-13.24-24.08-28.42-43.66-45-58.36A279.61,279.61,0,0,1,1378.11,403.6Zm-204-100.26c34.6,4.65,67.2,32.13,92.74,78.58a325.66,325.66,0,0,1,24.92,59.17c-36.12,10.11-76.08,15.83-117.66,16.66Zm0,175.48c43.51-.83,85.44-6.84,123.45-17.48q2.07,8,3.83,16.2a41.47,41.47,0,0,0,10.16,78.95q.36,7.49.5,15.07h-108.2a41.63,41.63,0,0,0-29.74-30.24ZM1153,303.34V457.75c-41.58-.83-81.54-6.55-117.66-16.66q2.39-7.6,5.06-14.95c.85.06,1.71.09,2.57.09a41.45,41.45,0,0,0,32-67.86C1097.79,326.2,1124.73,307.14,1153,303.34Zm-123.46,158c38,10.65,80,16.65,123.46,17.48v62.5a41.63,41.63,0,0,0-29.74,30.24H1015.05C1015.78,532.82,1020.74,495.49,1029.54,461.34Zm-7-76.59a20.42,20.42,0,0,1,20.4-20.4,20.06,20.06,0,0,1,2.92.23,20.43,20.43,0,0,1,16.41,13.7,20.09,20.09,0,0,1,1.08,6.47,20.41,20.41,0,0,1-40.81,0Zm64.17-71.35a193.37,193.37,0,0,0-28.88,32.65,41.46,41.46,0,0,0-37.46,73.48q-2.71,7.53-5.18,15.34A319.59,319.59,0,0,1,964,412.56q-7.9-4.33-15-9A279.52,279.52,0,0,1,1086.74,313.4Zm-150.65,107c5.63,3.68,11.54,7.24,17.78,10.67a342.41,342.41,0,0,0,55.53,24.1c-9.4,36.14-14.68,75.59-15.42,116.43H884.92A277.13,277.13,0,0,1,936.09,420.36Zm81.27,211.11a20.41,20.41,0,0,1-11.26,37.4h0a20.14,20.14,0,0,1-5.12-.68,20.39,20.39,0,1,1,16.38-36.72ZM885,592.63H994q.16,8,.56,16a41.47,41.47,0,0,0,10.59,81.29c1.4,6.43,2.92,12.79,4.57,19a341.76,341.76,0,0,0-55.86,24.2q-9,5-17.13,10.25A277.15,277.15,0,0,1,885,592.63Zm64.73,167.49q6.84-4.36,14.33-8.49a320.4,320.4,0,0,1,51.58-22.44,347.23,347.23,0,0,0,26.19,61.92c13.25,24.08,28.42,43.66,45,58.37A279.63,279.63,0,0,1,949.69,760.12ZM1153,859.53c-34.6-4.65-67.21-32.14-92.75-78.58a325.75,325.75,0,0,1-24.52-58c36-10,75.84-15.72,117.27-16.55Zm0-174.16c-43.39.83-85.21,6.8-123.14,17.4q-2.28-8.73-4.21-17.73a41.47,41.47,0,0,0-10-76.93q-.4-7.7-.56-15.48h108.53A41.64,41.64,0,0,0,1153,621.55Zm0-86.49a20.53,20.53,0,0,1-6.5-6.25,20.27,20.27,0,0,1-.8-21.07A20.55,20.55,0,0,1,1153,564a20.25,20.25,0,0,1,21.08,0,20.55,20.55,0,0,1,7.3,7.57,20.27,20.27,0,0,1-.8,21.07,20.33,20.33,0,0,1-27.58,6.25ZM1250.34,807c-22.46,30.67-48.73,48.84-76.26,52.54V706.44c41.43.83,81.26,6.5,117.27,16.55q-2.44,7.66-5.16,15.09a40.36,40.36,0,0,0-5.07-.32A41.45,41.45,0,0,0,1250.34,807Z"/></g></svg>