<svg xmlns="http://www.w3.org/2000/svg" xmlns:xlink="http://www.w3.org/1999/xlink" viewBox="0 0 1920 1080"><defs><style>.cls-1{fill:none;}.cls-2{fill:url(#linear-gradient);}.cls-3{fill:url(#linear-gradient-2);}.cls-4{fill:url(#linear-gradient-3);}.cls-5{fill:#fff;}</style><linearGradient id="linear-gradient" x1="443" y1="516.25" x2="1478.42" y2="516.25" gradientUnits="userSpaceOnUse"><stop offset="0" stop-color="#ff4b2b"/><stop offset="1" stop-color="#db0033"/></linearGradient><linearGradient id="linear-gradient-2" x1="443" y1="464.79" x2="1478.42" y2="464.79" gradientTransform="translate(1561.97 -675.39) rotate(88.44)" xlink:href="#linear-gradient"/><linearGradient id="linear-gradient-3" x1="443" y1="539.9" x2="1478.42" y2="539.9" xlink:href="#linear-gradient"/></defs><title>Artboard 16</title><g id="Layer_10_copy" data-name="Layer 10 copy"><path class="cls-1" d="M1206,874.19l2.5-.45a951.18,951.18,0,0,0,81.83-98.5l-.81-.51A948.6,948.6,0,0,1,1206,874.19Z"/><path class="cls-2" d="M1127.3,782.07,1279,630.43c2.21-2.09,7.57-7.6,9.55-9.65a219.48,219.48,0,0,0,59.06-150.08c0-121.46-98.81-220.26-220.26-220.26S907,349.24,907,470.7a219.49,219.49,0,0,0,59,150Zm37.55-496.46c28.4,0,64.8,15.38,92.74,39.17,35.2,30,54.6,70.67,54.6,114.54a11.72,11.72,0,1,1-23.44,0c0-84.29-81.84-130.27-123.9-130.27a11.72,11.72,0,0,1,0-23.44ZM1128,346.73a118.06,118.06,0,1,1-118.06,118.06A118.19,118.19,0,0,1,1128,346.73Z"/><circle class="cls-3" cx="1127.98" cy="464.79" r="94.62" transform="translate(632.74 1579.73) rotate(-88.44)"/><path class="cls-4" d="M980.24,879.27c-42.8-17.49-66.37-42-66.37-69.14s23.57-51.65,66.37-69.15a275.89,275.89,0,0,1,29.33-10l19.19,19.19c-56.57,13.5-91.45,37.57-91.45,59.94,0,33.45,78,70.72,190,70.72a448.22,448.22,0,0,0,78.66-6.66,948.6,948.6,0,0,0,83.52-99.46c-15.61-9.65-37.26-18.24-63.64-24.54L1245,731a276.66,276.66,0,0,1,29.33,10,183,183,0,0,1,28.72,14.57C1501.87,468.1,1477.47,163,1477.47,163,935.05-154.7,443,163,443,163c31,658.65,523.05,895,523.05,895,83.64-47,153.68-100.1,212.34-156.31a494.62,494.62,0,0,1-51.09,2.6C1071.94,904.29,1019.71,895.4,980.24,879.27ZM1127.3,227c134.38,0,243.7,109.32,243.7,243.7a242.83,242.83,0,0,1-65.43,166.13l-.14.15c-.29.3-7.1,7.36-10.22,10.34L1127.3,815.22,949,636.83A242.83,242.83,0,0,1,883.6,470.7C883.6,336.32,992.93,227,1127.3,227Z"/><path class="cls-5" d="M1127.3,815.22l167.91-167.9c3.12-3,9.93-10,10.22-10.34l.14-.15A242.83,242.83,0,0,0,1371,470.7c0-134.38-109.32-243.7-243.7-243.7S883.6,336.32,883.6,470.7A242.83,242.83,0,0,0,949,636.83Zm0-564.78c121.45,0,220.26,98.8,220.26,220.26a219.48,219.48,0,0,1-59.06,150.08c-2,2.05-7.34,7.56-9.55,9.65L1127.3,782.07,966,620.71a219.49,219.49,0,0,1-59-150C907,349.24,1005.85,250.44,1127.3,250.44Z"/><path class="cls-5" d="M1164.85,309.05c42.06,0,123.9,46,123.9,130.27a11.72,11.72,0,1,0,23.44,0c0-43.87-19.4-84.55-54.6-114.54-27.94-23.79-64.34-39.17-92.74-39.17a11.72,11.72,0,0,0,0,23.44Z"/><path class="cls-5" d="M1208.46,873.74l-2.5.45a448.22,448.22,0,0,1-78.66,6.66c-112,0-190-37.27-190-70.72,0-22.37,34.88-46.44,91.45-59.94L1009.57,731a275.89,275.89,0,0,0-29.33,10c-42.8,17.5-66.37,42-66.37,69.15s23.57,51.65,66.37,69.14c39.47,16.13,91.7,25,147.06,25a494.62,494.62,0,0,0,51.09-2.6l2.66-.29Q1195.2,887.69,1208.46,873.74Z"/><path class="cls-5" d="M1245,731l-19.2,19.19c26.38,6.3,48,14.89,63.64,24.54l.81.51q6.93-9.6,13.53-19.22l-.73-.47A183,183,0,0,0,1274.37,741,276.66,276.66,0,0,0,1245,731Z"/><path class="cls-5" d="M1128,582.84a118.06,118.06,0,1,0-118.06-118A118.19,118.19,0,0,0,1128,582.84Zm0-212.67a94.62,94.62,0,1,1-94.63,94.62A94.73,94.73,0,0,1,1128,370.17Z"/></g></svg>