<svg xmlns="http://www.w3.org/2000/svg" xmlns:xlink="http://www.w3.org/1999/xlink" viewBox="0 0 1920 1080"><defs><style>.cls-1{fill:url(#linear-gradient);}.cls-2{fill:url(#linear-gradient-2);}.cls-3{fill:#fff;}</style><linearGradient id="linear-gradient" x1="464" y1="540.5" x2="1490.23" y2="540.5" gradientUnits="userSpaceOnUse"><stop offset="0" stop-color="#ff4b2b"/><stop offset="1" stop-color="#db0033"/></linearGradient><linearGradient id="linear-gradient-2" y1="506.12" x2="1490.23" y2="506.12" xlink:href="#linear-gradient"/></defs><title>Artboard 18</title><g id="Layer_5" data-name="Layer 5"><path class="cls-1" d="M1049.39,868.1a10.89,10.89,0,0,1,10.9-10.89h85.29V801.88c-89.94-5.64-161.39-80.59-161.39-171.93V513.08H945a10.9,10.9,0,1,1,0-21.8h50.1a10.9,10.9,0,0,1,10.9,10.9V630c0,82.38,66.53,149.49,148.68,150.47a9.72,9.72,0,0,1,3.62,0c82.14-1,148.67-68.09,148.67-150.47V502.18a10.9,10.9,0,0,1,10.9-10.9H1368a10.9,10.9,0,0,1,0,21.8h-39.2V630c0,91.34-71.45,166.29-161.39,171.93v55.33H1234C1519.75,547.67,1489.29,167,1489.29,167,951.69-147.94,464,167,464,167,494.72,819.76,982.41,1054,982.41,1054c92.79-52.19,168.69-111.86,230.79-175H1060.29A10.9,10.9,0,0,1,1049.39,868.1ZM1033,377.87a11.05,11.05,0,0,1,.2-2.09,123.41,123.41,0,0,1,246.47,0,10.74,10.74,0,0,1,.2,2.06V629.8a123.44,123.44,0,1,1-246.87,0Z"/><path class="cls-2" d="M1156.48,731.45A101.76,101.76,0,0,0,1258.12,629.8V567.86h-40.81a10.9,10.9,0,0,1,0-21.8h40.81V493.17h-40.81a10.9,10.9,0,0,1,0-21.8h40.81v-52.9h-40.81a10.9,10.9,0,0,1,0-21.79h40.81V379.43a10.54,10.54,0,0,1-.11-1.13,101.25,101.25,0,0,0-67.9-91.84v44.22a10.9,10.9,0,1,1-21.79,0V281.5a99.82,99.82,0,0,0-25.11.17v49a10.9,10.9,0,1,1-21.79,0V287a101.27,101.27,0,0,0-66.48,91.33,10.48,10.48,0,0,1-.11,1.14v17.24h40.8a10.9,10.9,0,1,1,0,21.79h-40.8v52.9h40.8a10.9,10.9,0,0,1,0,21.8h-40.8v52.89h40.8a10.9,10.9,0,0,1,0,21.8h-40.8V629.8A101.77,101.77,0,0,0,1156.48,731.45Z"/><path class="cls-3" d="M1156.48,753.24A123.57,123.57,0,0,0,1279.91,629.8V377.87a10.74,10.74,0,0,0-.2-2.06,123.41,123.41,0,0,0-246.47,0,11.05,11.05,0,0,0-.2,2.09V629.8A123.57,123.57,0,0,0,1156.48,753.24ZM1054.83,567.86h40.8a10.9,10.9,0,0,0,0-21.8h-40.8V493.17h40.8a10.9,10.9,0,0,0,0-21.8h-40.8v-52.9h40.8a10.9,10.9,0,1,0,0-21.79h-40.8V379.44a10.48,10.48,0,0,0,.11-1.14A101.27,101.27,0,0,1,1121.42,287v43.71a10.9,10.9,0,1,0,21.79,0v-49a99.82,99.82,0,0,1,25.11-.17v49.18a10.9,10.9,0,1,0,21.79,0V286.46A101.25,101.25,0,0,1,1258,378.3a10.54,10.54,0,0,0,.11,1.13v17.25h-40.81a10.9,10.9,0,0,0,0,21.79h40.81v52.9h-40.81a10.9,10.9,0,0,0,0,21.8h40.81v52.89h-40.81a10.9,10.9,0,0,0,0,21.8h40.81V629.8a101.65,101.65,0,1,1-203.29,0Z"/><path class="cls-3" d="M1234,857.21h-66.62V801.88c89.94-5.64,161.39-80.59,161.39-171.93V513.08H1368a10.9,10.9,0,0,0,0-21.8h-50.1a10.9,10.9,0,0,0-10.9,10.9V630c0,82.38-66.53,149.49-148.67,150.47a9.72,9.72,0,0,0-3.62,0C1072.52,779.44,1006,712.33,1006,630V502.18a10.9,10.9,0,0,0-10.9-10.9H945a10.9,10.9,0,1,0,0,21.8h39.2V630c0,91.34,71.45,166.29,161.39,171.93v55.33h-85.29a10.9,10.9,0,1,0,0,21.79h155.2Q1226,868.17,1236,857.21Z"/></g></svg>