<svg xmlns="http://www.w3.org/2000/svg" xmlns:xlink="http://www.w3.org/1999/xlink" viewBox="0 0 1920 1080"><defs><style>.cls-1{fill:none;}.cls-2{fill:url(#linear-gradient);}.cls-3{fill:url(#linear-gradient-2);}.cls-4{fill:url(#linear-gradient-3);}.cls-5{fill:url(#linear-gradient-4);}.cls-6{fill:url(#linear-gradient-5);}.cls-7{fill:url(#linear-gradient-6);}.cls-8{fill:url(#linear-gradient-7);}.cls-9{fill:#fff;}</style><linearGradient id="linear-gradient" x1="395" y1="538.44" x2="1430.42" y2="538.44" gradientUnits="userSpaceOnUse"><stop offset="0" stop-color="#ff4b2b"/><stop offset="1" stop-color="#db0033"/></linearGradient><linearGradient id="linear-gradient-2" x1="395" y1="333.11" x2="1430.42" y2="333.11" xlink:href="#linear-gradient"/><linearGradient id="linear-gradient-3" x1="395" y1="614.9" x2="1430.42" y2="614.9" xlink:href="#linear-gradient"/><linearGradient id="linear-gradient-4" x1="395" y1="539.9" x2="1430.42" y2="539.9" xlink:href="#linear-gradient"/><linearGradient id="linear-gradient-5" x1="395" y1="616.99" x2="1430.42" y2="616.99" xlink:href="#linear-gradient"/><linearGradient id="linear-gradient-6" x1="395" y1="690.38" x2="1430.42" y2="690.38" xlink:href="#linear-gradient"/><linearGradient id="linear-gradient-7" x1="395" y1="731.17" x2="1430.42" y2="731.17" xlink:href="#linear-gradient"/></defs><title>Artboard 17</title><g id="Layer_11" data-name="Layer 11"><path class="cls-1" d="M1137,895.36h3.28c114.15-112.65,184-237.64,226.55-351.92v-3.32C1324.19,655.27,1253.58,781.5,1137,895.36Z"/><path class="cls-2" d="M977.41,530.63l5.35,15.47c1.67,4.84,2.11,6.15,30.12,10,14.91,2,29.07,7.36,39.85,12.39a48.19,48.19,0,0,0-9-36.15,58.14,58.14,0,0,0-35.91-22.67,61.27,61.27,0,0,0-12.11-1.22c-25.76,0-47.83,16.75-52.48,39.83a46.06,46.06,0,0,0-.79,12.6c11.43-9.48,21.35-18.19,22.66-19.34Z"/><path class="cls-3" d="M1075.74,395.58H1126a8.45,8.45,0,0,0,8.44-8.44V279.08a8.45,8.45,0,0,0-8.44-8.44h-50.23a8.45,8.45,0,0,0-8.44,8.44V387.14A8.44,8.44,0,0,0,1075.74,395.58Z"/><path class="cls-4" d="M1047.07,614.74V590.05c-9.8-4.85-23.35-10.38-37.16-12.27-20.36-2.79-32.22-4.72-39.83-11.58-5.49,4.71-13.08,11.12-20.76,17.34v31.2a48.88,48.88,0,0,0,97.75,0Z"/><path class="cls-5" d="M811.29,886.92V347.07A32.12,32.12,0,0,1,843.37,315h200.29V279.08A32.12,32.12,0,0,1,1075.74,247H1126a32.12,32.12,0,0,1,32.08,32.08V315h200.29a32.12,32.12,0,0,1,32.08,32.08v121c49.65-172.61,39-305.09,39-305.09C887.05-154.7,395,163,395,163c31,658.65,523.05,895,523.05,895,75-42.19,139.06-89.21,193.8-139H843.37A32.12,32.12,0,0,1,811.29,886.92Z"/><path class="cls-6" d="M1366.78,540.12v-193a8.44,8.44,0,0,0-8.44-8.44H1158.05v48.51A32.12,32.12,0,0,1,1126,419.22h-50.23a32.12,32.12,0,0,1-32.08-32.08V338.63H843.37a8.45,8.45,0,0,0-8.45,8.44V886.92a8.46,8.46,0,0,0,8.45,8.44H1137C1253.58,781.5,1324.19,655.27,1366.78,540.12Zm-260,239.55H936.3v0h-4.53v0H890.94V768.72c0-41,32.34-76.1,79.26-86.73v-2.25a71,71,0,0,1-42.06-55,23.74,23.74,0,0,1-3.41-43.36,68.74,68.74,0,0,1-3-37.46,69.77,69.77,0,0,1,26.45-41.7,78.86,78.86,0,0,1,47.5-15.7,83.54,83.54,0,0,1,16.43,1.64,80,80,0,0,1,49.34,31.31c11.85,16.39,16.25,36,12.39,55.11a65,65,0,0,1-1.86,7.13,23.73,23.73,0,0,1-3.77,42.94,71.26,71.26,0,0,1-40.74,54.48V682c46.91,10.63,79.26,45.72,79.26,86.73Zm35.17-265.87h179.83a11.82,11.82,0,0,1,0,23.64H1141.94a11.82,11.82,0,0,1,0-23.64Zm-10.82,48.82a11.82,11.82,0,0,1,11.82-11.82h179.83a11.82,11.82,0,0,1,0,23.64H1142.94A11.82,11.82,0,0,1,1131.12,562.62Z"/><path class="cls-7" d="M992.1,691.9l6.74,3.74,6.77-3.75v-6.77a69.27,69.27,0,0,1-13.51.12Z"/><path class="cls-8" d="M1027.51,704.58v.22l-28.69,15.89-28.62-15.9v-.21C940.53,712.83,919,733.22,914,757.75h22.25l147.54,0C1078.73,733.23,1057.19,712.83,1027.51,704.58Z"/><path class="cls-9" d="M1027.51,682v-2.86a71.26,71.26,0,0,0,40.74-54.48,23.73,23.73,0,0,0,3.77-42.94,65,65,0,0,0,1.86-7.13c3.86-19.15-.54-38.72-12.39-55.11a80,80,0,0,0-49.34-31.31,83.54,83.54,0,0,0-16.43-1.64,78.86,78.86,0,0,0-47.5,15.7,69.77,69.77,0,0,0-26.45,41.7,68.74,68.74,0,0,0,3,37.46,23.74,23.74,0,0,0,3.41,43.36,71,71,0,0,0,42.06,55V682c-46.92,10.63-79.26,45.72-79.26,86.73v10.95h40.83v0h4.53v0h170.47V768.72C1106.77,727.71,1074.42,692.62,1027.51,682ZM942.45,560.85a46.06,46.06,0,0,1,.79-12.6c4.65-23.08,26.72-39.83,52.48-39.83a61.27,61.27,0,0,1,12.11,1.22,58.14,58.14,0,0,1,35.91,22.67,48.19,48.19,0,0,1,9,36.15c-10.78-5-24.94-10.34-39.85-12.39-28-3.82-28.45-5.13-30.12-10l-5.35-15.47-12.3,10.88C963.8,542.66,953.88,551.37,942.45,560.85Zm6.87,53.89v-31.2c7.68-6.22,15.27-12.63,20.76-17.34,7.61,6.86,19.47,8.79,39.83,11.58,13.81,1.89,27.36,7.42,37.16,12.27v24.69a48.88,48.88,0,0,1-97.75,0Zm56.29,70.38v6.77l-6.77,3.75-6.74-3.74v-6.66A69.27,69.27,0,0,0,1005.61,685.12Zm-69.4,72.62H914c5-24.53,26.57-44.92,56.24-53.17v.21l28.62,15.9,28.69-15.89v-.22c29.68,8.25,51.22,28.65,56.24,53.18Z"/><path class="cls-9" d="M1141.94,537.44h179.83a11.82,11.82,0,0,0,0-23.64H1141.94a11.82,11.82,0,0,0,0,23.64Z"/><path class="cls-9" d="M1137,895.36H843.37a8.46,8.46,0,0,1-8.45-8.44V347.07a8.45,8.45,0,0,1,8.45-8.44h200.29v48.51a32.12,32.12,0,0,0,32.08,32.08H1126a32.12,32.12,0,0,0,32.08-32.08V338.63h200.29a8.44,8.44,0,0,1,8.44,8.44V543.44c9.06-24.29,16.89-48.11,23.64-71.21V347.07A32.12,32.12,0,0,0,1358.34,315H1158.05V279.08A32.12,32.12,0,0,0,1126,247h-50.23a32.12,32.12,0,0,0-32.08,32.08V315H843.37a32.12,32.12,0,0,0-32.08,32.08V886.92A32.12,32.12,0,0,0,843.37,919h272q12.73-11.71,24.82-23.64ZM1067.3,338.63V279.08a8.45,8.45,0,0,1,8.44-8.44H1126a8.45,8.45,0,0,1,8.44,8.44V387.14a8.45,8.45,0,0,1-8.44,8.44h-50.23a8.44,8.44,0,0,1-8.44-8.44Z"/><path class="cls-9" d="M1334.59,562.62a11.82,11.82,0,0,0-11.82-11.82H1142.94a11.82,11.82,0,0,0,0,23.64h179.83A11.82,11.82,0,0,0,1334.59,562.62Z"/></g></svg>