<svg xmlns="http://www.w3.org/2000/svg" xmlns:xlink="http://www.w3.org/1999/xlink" viewBox="0 0 1920 1080"><defs><style>.cls-1{fill:none;}.cls-2{fill:url(#linear-gradient);}.cls-3{fill:url(#linear-gradient-2);}.cls-4{fill:url(#linear-gradient-3);}.cls-5{fill:url(#linear-gradient-4);}.cls-6{fill:#fff;}</style><linearGradient id="linear-gradient" x1="442" y1="347.28" x2="1477.42" y2="347.28" gradientUnits="userSpaceOnUse"><stop offset="0" stop-color="#ff4b2b"/><stop offset="1" stop-color="#db0033"/></linearGradient><linearGradient id="linear-gradient-2" x1="442" y1="541.9" x2="1477.42" y2="541.9" xlink:href="#linear-gradient"/><linearGradient id="linear-gradient-3" x1="442" y1="623.28" x2="1477.42" y2="623.28" xlink:href="#linear-gradient"/><linearGradient id="linear-gradient-4" x1="442" y1="801.43" x2="1477.42" y2="801.43" xlink:href="#linear-gradient"/></defs><title>Artboard 6</title><g id="Layer_4_copy_2" data-name="Layer 4 copy 2"><path class="cls-1" d="M1158.51,921.31l.16,0q21.48-19.41,41.08-39.33l-.19-.26Q1180,901.78,1158.51,921.31Z"/><path class="cls-1" d="M1216,864.59l.23.34q25.88-27.57,48.44-55.75l-.5-.49Q1241.64,836.94,1216,864.59Z"/><path class="cls-1" d="M1111.3,961.58q12.89-10.29,25.2-20.76l-.07,0Q1124.16,951.29,1111.3,961.58Z"/><path class="cls-1" d="M1106.69,965.27l-.46.36Z"/><path class="cls-2" d="M939.63,427.31c6.29-3.67,12.79-7.46,19-11.31,1.25-.77,3.22-2,4.63-2.95-.31-1.09-.78-2.55-1.42-4.4-12.44-36.16-26.54-77.16-41.91-117.14-3.94-10.25-9.44-20-15.26-30.36l-3.33-5.95C875.7,271,851.94,290.12,829.1,309.84l90.31,129.52C926.15,435.18,933,431.2,939.63,427.31Z"/><path class="cls-3" d="M1106.69,965.27c1.55-1.23,3.07-2.46,4.61-3.69q12.85-10.3,25.13-20.79c-2.58-.91-5.17-1.81-7.75-2.69-5.91-2-12-4.14-18-6.53-42.88-17-82.82-43.47-122.11-80.85-85.29-81.14-152.59-179-200-290.83-22.27-52.51-35.12-102.47-39.28-152.76-.78-9.41-.94-18.84-1.09-27.95-.07-4.1-.14-8.2-.26-12.3a11.27,11.27,0,0,1,.17-2.39l1.75-9.8a11.63,11.63,0,0,1,3.28-6.24c2.69-2.65,5.35-5.35,8-8,5.87-6,11.95-12.12,18.45-17.88l6.53-5.8c34.44-30.62,70.06-62.27,111.39-86.28a11.6,11.6,0,0,1,7.88-1.39l3.68.65a11.58,11.58,0,0,1,8.25,6c2.44,4.65,5.11,9.39,7.69,14,6,10.61,12.16,21.59,16.71,33.43,15.51,40.37,29.68,81.57,42.19,117.92,6.48,18.83,2.44,25.18-13,34.7-6.48,4-13.11,7.86-19.52,11.6-6.16,3.6-12.45,7.28-18.62,11.07-2.69,1.66-5.37,3.34-8,5.05l-1.37.89c-3.75,2.44-7.39,4.81-10.12,6.78-2.41,1.73-4.12,3.15-4.55,4-.69,1.36.32,8.49,1.21,14.78l.64,4.52c6.86,49.71,24.32,97.38,53.38,145.74,23.45,39,49.56,68.65,79.82,90.55,17.56,12.71,34.6,21.19,52.11,25.93,6.7,1.81,11.67,1.77,16.3-.29a23,23,0,0,0,3.91-2.26q7.47-5.39,15.35-10.77,14.31-9.79,29.65-19.45c9.18-5.77,16.43-10.32,25.49-8.71,6.78,1.21,12.23,5.58,19.12,11.11,26.42,21.21,50.51,42.35,72.78,63.88,224.29-296.49,198-625.2,198-625.2C934.05-152.7,442,165,442,165c30.93,657.16,520.81,893.91,523,895a1104.67,1104.67,0,0,0,141.21-94.36Z"/><path class="cls-4" d="M1199.56,881.75l-74-106.1c-9,5.21-18.92,6.78-30.08,4.79h0c-1.84-.33-3.76-.76-5.72-1.29-20.27-5.49-39.79-15.15-59.66-29.54C997.27,725.83,969.1,694,944,652.2c-30.71-51.11-49.19-101.66-56.49-154.54l-.62-4.44c-1.82-12.87-2.92-20.64,1.05-28.51,2.46-4.88,6.23-8.46,12-12.6L811.49,325.26q-5,4.42-10,8.85L795,339.92c-5.92,5.25-11.46,10.87-17.33,16.82-1.86,1.89-3.72,3.77-5.6,5.65l-.89,5c.11,3.8.17,7.6.24,11.4.15,9.14.29,17.78,1,26.43,4,47.77,16.23,95.4,37.52,145.59C856.1,659.7,921.58,754.94,1004.56,833.88c37.09,35.29,74.6,60.17,114.66,76.08,5.53,2.19,11.11,4.11,17,6.15,2.45.84,4.89,1.68,7.33,2.54l14.94,2.66Q1180,901.8,1199.56,881.75Z"/><path class="cls-5" d="M1191.13,744.47c-2.51-2-6.56-5.27-8.38-6.2-2,.73-6.5,3.58-9.31,5.35-9.88,6.21-19.48,12.51-28.72,18.83L1216,864.59q25.72-27.62,48.17-55.9C1241.86,787.05,1217.71,765.8,1191.13,744.47Z"/><path class="cls-6" d="M1186.56,715.22c-9.06-1.61-16.31,2.94-25.49,8.71q-15.3,9.62-29.65,19.45-7.86,5.39-15.35,10.77a23,23,0,0,1-3.91,2.26c-4.63,2.06-9.6,2.1-16.3.29-17.51-4.74-34.55-13.22-52.11-25.93-30.26-21.9-56.37-51.52-79.82-90.55-29.06-48.36-46.52-96-53.38-145.74l-.64-4.52c-.89-6.29-1.9-13.42-1.21-14.78.43-.85,2.14-2.27,4.55-4,2.73-2,6.37-4.34,10.12-6.78l1.37-.89c2.62-1.71,5.3-3.39,8-5.05,6.17-3.79,12.46-7.47,18.62-11.07,6.41-3.74,13-7.6,19.52-11.6,15.43-9.52,19.47-15.87,13-34.7-12.51-36.35-26.68-77.55-42.19-117.92-4.55-11.84-10.73-22.82-16.71-33.43-2.58-4.59-5.25-9.33-7.69-14a11.58,11.58,0,0,0-8.25-6l-3.68-.65a11.6,11.6,0,0,0-7.88,1.39c-41.33,24-77,55.66-111.39,86.28l-6.53,5.8c-6.5,5.76-12.58,11.92-18.45,17.88-2.66,2.69-5.32,5.39-8,8a11.63,11.63,0,0,0-3.28,6.24l-1.75,9.8a11.27,11.27,0,0,0-.17,2.39c.12,4.1.19,8.2.26,12.3.15,9.11.31,18.54,1.09,27.95,4.16,50.29,17,100.25,39.28,152.76,47.43,111.84,114.73,209.69,200,290.83,39.29,37.38,79.23,63.83,122.11,80.85,6,2.39,12.13,4.49,18,6.53,2.58.88,5.17,1.78,7.75,2.69l.07,0q11.34-9.68,22.17-19.48l-.16,0-14.94-2.66c-2.44-.86-4.88-1.7-7.33-2.54-5.91-2-11.49-4-17-6.15-40.06-15.91-77.57-40.79-114.66-76.08-83-78.94-148.46-174.18-194.64-283.07C788.63,500.62,776.36,453,772.4,405.22c-.72-8.65-.86-17.29-1-26.43-.07-3.8-.13-7.6-.24-11.4l.89-5c1.88-1.88,3.74-3.76,5.6-5.65,5.87-5.95,11.41-11.57,17.33-16.82l6.54-5.81q5-4.41,10-8.85L900,452.11c-5.78,4.14-9.55,7.72-12,12.6-4,7.87-2.87,15.64-1.05,28.51l.62,4.44c7.3,52.88,25.78,103.43,56.49,154.54,25.1,41.77,53.27,73.63,86.12,97.41,19.87,14.39,39.39,24,59.66,29.54,2,.53,3.88,1,5.72,1.29h0c11.16,2,21,.42,30.08-4.79l74,106.1.19.26q8.38-8.5,16.43-17.08l-.23-.34-71.23-102.14c9.24-6.32,18.84-12.62,28.72-18.83,2.81-1.77,7.36-4.62,9.31-5.35,1.82.93,5.87,4.18,8.38,6.2,26.58,21.33,50.73,42.58,73,64.22l.5.49Q1272,800,1279,790.78l-.58-.57c-22.27-21.53-46.36-42.67-72.78-63.88C1198.79,720.8,1193.34,716.43,1186.56,715.22ZM829.1,309.84c22.84-19.72,46.6-38.81,72.27-54.64l3.33,5.95c5.82,10.34,11.32,20.11,15.26,30.36,15.37,40,29.47,81,41.91,117.14.64,1.85,1.11,3.31,1.42,4.4-1.41,1-3.38,2.18-4.63,2.95-6.24,3.85-12.74,7.64-19,11.31-6.66,3.89-13.48,7.87-20.22,12.05Z"/></g></svg>