<svg xmlns="http://www.w3.org/2000/svg" xmlns:xlink="http://www.w3.org/1999/xlink" viewBox="0 0 1920 1080"><defs><style>.cls-1{fill:none;}.cls-2{fill:url(#linear-gradient);}.cls-3{fill:url(#linear-gradient-2);}.cls-4{fill:url(#linear-gradient-3);}.cls-5{fill:url(#linear-gradient-4);}.cls-6{fill:#fff;}</style><linearGradient id="linear-gradient" x1="430" y1="572.54" x2="1465.42" y2="572.54" gradientUnits="userSpaceOnUse"><stop offset="0" stop-color="#ff4b2b"/><stop offset="1" stop-color="#db0033"/></linearGradient><linearGradient id="linear-gradient-2" x1="430" y1="567.31" x2="1465.42" y2="567.31" xlink:href="#linear-gradient"/><linearGradient id="linear-gradient-3" x1="430" y1="539.9" x2="1465.42" y2="539.9" xlink:href="#linear-gradient"/><linearGradient id="linear-gradient-4" x1="430" y1="461.48" x2="1465.42" y2="461.48" xlink:href="#linear-gradient"/></defs><title>Artboard 11</title><g id="Layer_6_copy" data-name="Layer 6 copy"><path class="cls-1" d="M1207.72,859.62a954.18,954.18,0,0,0,143.22-204.86,948.88,948.88,0,0,1-144.77,205.45Z"/><path class="cls-2" d="M1288.62,564.51H1097.68a6.7,6.7,0,0,0-6.69,6.69v2.68a6.7,6.7,0,0,0,6.69,6.69h190.94a6.71,6.71,0,0,0,6.69-6.69V571.2A6.7,6.7,0,0,0,1288.62,564.51Z"/><path class="cls-3" d="M1098.31,255.19c-172.1,0-312.12,140-312.12,312.12s140,312.12,312.12,312.12a310.75,310.75,0,0,0,107.86-19.22,948.88,948.88,0,0,0,144.77-205.45,1004.9,1004.9,0,0,0,56.48-130.65C1386.32,372.38,1255.75,255.19,1098.31,255.19Zm215.74,318.69a25.46,25.46,0,0,1-25.43,25.43H1097.68a25.46,25.46,0,0,1-25.42-25.43h0V383a25.46,25.46,0,0,1,25.42-25.43h2.69A25.46,25.46,0,0,1,1125.79,383V545.77h162.83a25.46,25.46,0,0,1,25.43,25.43Z"/><path class="cls-4" d="M762.62,567.31c0-185.1,150.59-335.69,335.69-335.69,154.5,0,284.94,104.93,323.84,247.26,5.21-17.32,9.82-34.27,13.9-50.74,37.4-152.68,28.42-265.13,28.42-265.13C922.05-154.7,430,163,430,163c31,658.65,523.05,895,523.05,895,87.1-49,159.47-104.51,219.59-163.31a335.47,335.47,0,0,1-74.33,8.31C913.21,903,762.62,752.41,762.62,567.31Z"/><path class="cls-5" d="M1107.05,545.77V383a6.7,6.7,0,0,0-6.68-6.7h-2.69A6.7,6.7,0,0,0,1091,383V546.7a25.13,25.13,0,0,1,6.69-.93Z"/><path class="cls-6" d="M1207.72,859.62l-1.55.59a310.75,310.75,0,0,1-107.86,19.22c-172.1,0-312.12-140-312.12-312.12s140-312.12,312.12-312.12c157.44,0,288,117.19,309.11,268.92q8.07-23,14.73-45.23c-38.9-142.33-169.34-247.26-323.84-247.26-185.1,0-335.69,150.59-335.69,335.69S913.21,903,1098.31,903a335.47,335.47,0,0,0,74.33-8.31l1.65-.39Q1191.68,877.14,1207.72,859.62Z"/><path class="cls-6" d="M1288.62,545.77H1125.79V383a25.46,25.46,0,0,0-25.42-25.43h-2.69A25.46,25.46,0,0,0,1072.26,383V573.88h0a25.46,25.46,0,0,0,25.42,25.43h190.94a25.46,25.46,0,0,0,25.43-25.43V571.2A25.46,25.46,0,0,0,1288.62,545.77ZM1091,383a6.7,6.7,0,0,1,6.69-6.7h2.69a6.7,6.7,0,0,1,6.68,6.7V545.77h-9.37a25.13,25.13,0,0,0-6.69.93Zm204.32,190.93a6.71,6.71,0,0,1-6.69,6.69H1097.68a6.7,6.7,0,0,1-6.69-6.69V571.2a6.7,6.7,0,0,1,6.69-6.69h190.94a6.7,6.7,0,0,1,6.69,6.69Z"/></g></svg>