<svg xmlns="http://www.w3.org/2000/svg" xmlns:xlink="http://www.w3.org/1999/xlink" viewBox="0 0 1920 1080"><defs><style>.cls-1{fill:none;}.cls-2{fill:url(#linear-gradient);}.cls-3{fill:url(#linear-gradient-2);}.cls-4{fill:url(#linear-gradient-3);}.cls-5{fill:#fff;}</style><linearGradient id="linear-gradient" x1="442" y1="438.91" x2="1477.42" y2="438.91" gradientUnits="userSpaceOnUse"><stop offset="0" stop-color="#ff4b2b"/><stop offset="1" stop-color="#db0033"/></linearGradient><linearGradient id="linear-gradient-2" x1="442" y1="816.14" x2="1477.42" y2="816.14" xlink:href="#linear-gradient"/><linearGradient id="linear-gradient-3" x1="442" y1="539.9" x2="1477.42" y2="539.9" xlink:href="#linear-gradient"/></defs><title>Artboard 10</title><g id="Layer_5_copy" data-name="Layer 5 copy"><path class="cls-1" d="M1186,893.35l.07.17q9.67-9.56,18.93-19.21l0-.11Q1195.68,883.83,1186,893.35Z"/><path class="cls-1" d="M1222.35,855.72q8.16-9,16-18-7.83,9-16,18Z"/><path class="cls-2" d="M1238.81,521.06c45.3-114-10.62-243.64-124.64-288.93S870.53,242.74,825.24,356.76,835.85,600.4,949.87,645.7,1193.51,635.08,1238.81,521.06Zm-132.67-244.5a11.65,11.65,0,1,1,8.6-21.65c32.89,13.07,68,47.75,89.57,88.37,27.09,51.14,30.85,107.37,10.6,158.35a11.64,11.64,0,1,1-21.64-8.6C1233.64,391.4,1156.89,296.72,1106.14,276.56Z"/><path class="cls-3" d="M1205,874.2l-55.09-127.72a12.49,12.49,0,0,0-22.94,9.9l59.08,137Q1195.69,883.83,1205,874.2Z"/><path class="cls-4" d="M1105.13,738.22A35.54,35.54,0,0,1,1116,723.56l-20.41-47.3a244.55,244.55,0,0,1-154.3-8.91c-125.95-50-187.72-193.23-137.68-319.19s193.22-187.72,319.18-137.68S1310.5,403.7,1260.46,529.66a245.25,245.25,0,0,1-143.69,139.85l19.93,46.19a35.72,35.72,0,0,1,34.55,21.56l51.08,118.41q8.18-9,16-18C1379.38,674.36,1438.13,494,1462.2,360.9,1482.91,243.57,1476.47,163,1476.47,163,934.05-154.7,442,163,442,163c31,658.65,523.05,895,523.05,895,79.24-44.57,146.27-94.54,203-147.47L1105.53,765.6A35.56,35.56,0,0,1,1105.13,738.22Z"/><path class="cls-5" d="M1186,893.35l-59.08-137a12.49,12.49,0,0,1,22.94-9.9L1205,874.2l0,.11q8.87-9.25,17.35-18.59l0-.05-51.08-118.41a35.72,35.72,0,0,0-34.55-21.56l-19.93-46.19a245.25,245.25,0,0,0,143.69-139.85c50-126-11.73-269.14-137.69-319.18S853.63,222.21,803.59,348.16s11.73,269.15,137.68,319.19a244.55,244.55,0,0,0,154.3,8.91l20.41,47.3a35.71,35.71,0,0,0-10.45,42L1168,910.53l.1.22q9.15-8.57,17.93-17.23ZM949.87,645.7c-114-45.3-169.93-174.91-124.63-288.94s174.91-169.93,288.93-124.63S1284.11,407,1238.81,521.06,1063.9,691,949.87,645.7Z"/><path class="cls-5" d="M1193.27,493a11.64,11.64,0,1,0,21.64,8.6c20.25-51,16.49-107.21-10.6-158.35-21.52-40.62-56.68-75.3-89.57-88.37a11.65,11.65,0,1,0-8.6,21.65C1156.89,296.72,1233.64,391.4,1193.27,493Z"/></g></svg>