<?xml version="1.0" encoding="utf-8"?>
<!-- Generator: Adobe Illustrator 22.1.0, SVG Export Plug-In . SVG Version: 6.00 Build 0)  -->
<svg version="1.1" id="Layer_1" xmlns="http://www.w3.org/2000/svg" xmlns:xlink="http://www.w3.org/1999/xlink" x="0px" y="0px"
	 viewBox="0 0 1920 1080" style="enable-background:new 0 0 1920 1080;" xml:space="preserve">
<style type="text/css">
	.st0{fill:none;}
	.st1{fill:#FFFFFF;}
	.st2{fill:url(#SVGID_1_);}
	.st3{fill:url(#SVGID_2_);}
	.st4{fill:url(#SVGID_3_);}
	.st5{fill:url(#SVGID_4_);}
	.st6{fill:url(#SVGID_5_);}
	.st7{fill:url(#SVGID_6_);}
	.st8{fill:url(#SVGID_7_);}
	.st9{fill:url(#SVGID_8_);}
	.st10{fill:url(#SVGID_9_);}
	.st11{fill:url(#SVGID_10_);}
	.st12{fill:url(#SVGID_11_);}
	.st13{fill:url(#SVGID_12_);}
	.st14{fill:url(#SVGID_13_);}
	.st15{fill:url(#SVGID_14_);}
	.st16{fill:url(#SVGID_15_);}
</style>
<title>Artboard 1</title>
<g id="Layer_1_copy_4">
	<path class="st0" d="M1088.2,981.6l-0.3,1c69.9-52.4,127.3-109.4,174.4-168l-0.6-0.5C1214.9,872.5,1157.8,929.3,1088.2,981.6z"/>
	<path class="st0" d="M1280.5,790l0.6,0.5c35.3-47,66.1-97.1,92.1-149.8l-1.2,0.4C1346.2,693.5,1315.6,743.4,1280.5,790z"/>
	<path class="st0" d="M1396.9,586.6l1.2-0.4l0.7-1.7l-0.8-0.3L1396.9,586.6z"/>
	<path class="st1" d="M1397.9,584.2l0.8,0.3c1.3-3.2,2.7-6.4,4-9.6l-0.8-0.3C1400.6,577.8,1399.3,581,1397.9,584.2z"/>
	<path class="st1" d="M1387.3,608.8l1.2-0.4c3.3-7.4,6.5-14.8,9.6-22.2l-1.2,0.4C1393.8,594,1390.6,601.4,1387.3,608.8z"/>
	<path class="st1" d="M1261.8,814.1l0.6,0.5l2.5-3.1l-0.6-0.5L1261.8,814.1z"/>
	
		<linearGradient id="SVGID_1_" gradientUnits="userSpaceOnUse" x1="449.7" y1="194.755" x2="1475.6799" y2="194.755" gradientTransform="matrix(1 0 0 -1 0 1080)">
		<stop  offset="0" style="stop-color:#FF4B2B"/>
		<stop  offset="1" style="stop-color:#DB0033"/>
	</linearGradient>
	<path class="st2" d="M1261.8,814.1l-26.7-25.2c-38.3,48-81.4,91.8-128.7,130.9l-18.2,61.9C1157.8,929.3,1214.9,872.5,1261.8,814.1z
		"/>
	
		<linearGradient id="SVGID_2_" gradientUnits="userSpaceOnUse" x1="449.7" y1="364.405" x2="1475.6799" y2="364.405" gradientTransform="matrix(1 0 0 -1 0 1080)">
		<stop  offset="0" style="stop-color:#FF4B2B"/>
		<stop  offset="1" style="stop-color:#DB0033"/>
	</linearGradient>
	<path class="st3" d="M1280.5,790c35-46.7,65.7-96.5,91.5-148.9l-50,15.6c-20.1,37.6-42.9,73.7-68.3,108L1280.5,790z"/>
	
		<linearGradient id="SVGID_3_" gradientUnits="userSpaceOnUse" x1="449.74" y1="533.3806" x2="1475.6836" y2="533.3806" gradientTransform="matrix(1 0 0 -1 0 1080)">
		<stop  offset="0" style="stop-color:#FF4B2B"/>
		<stop  offset="1" style="stop-color:#DB0033"/>
	</linearGradient>
	<path class="st4" d="M960.6,1019.5c0,0-451.7-217-480.2-821.7c0,0,451.7-291.7,949.7,0c0,0,12.2,152-54.4,337.6l35.7,14.5
		c77-205.9,63.3-376.9,63.3-376.9c-537.5-314.8-1025,0-1025,0C480.4,825.8,968,1060,968,1060c27.8-15.6,54-31.9,78.8-48.8
		l-15.1-35.5C1009.2,990.9,985.5,1005.5,960.6,1019.5z"/>
	
		<linearGradient id="SVGID_4_" gradientUnits="userSpaceOnUse" x1="449.7" y1="494.345" x2="1475.6799" y2="494.345" gradientTransform="matrix(1 0 0 -1 0 1080)">
		<stop  offset="0" style="stop-color:#FF4B2B"/>
		<stop  offset="1" style="stop-color:#DB0033"/>
	</linearGradient>
	<path class="st5" d="M1349.1,601.5l47.8-14.9l1-2.4l-35.3-14.4C1358.4,580.3,1353.9,590.8,1349.1,601.5z"/>
	
		<linearGradient id="SVGID_5_" gradientUnits="userSpaceOnUse" x1="480.42" y1="369.305" x2="1431" y2="369.305" gradientTransform="matrix(1 0 0 -1 0 1080)">
		<stop  offset="0" style="stop-color:#FF4B2B"/>
		<stop  offset="1" style="stop-color:#DB0033"/>
	</linearGradient>
	<path class="st6" d="M1322,656.7l-137.2,42.7l68.9,65.3C1279.1,730.4,1301.9,694.3,1322,656.7z"/>
	
		<linearGradient id="SVGID_6_" gradientUnits="userSpaceOnUse" x1="449.7" y1="369.305" x2="1475.6799" y2="369.305" gradientTransform="matrix(1 0 0 -1 0 1080)">
		<stop  offset="0" style="stop-color:#FF4B2B"/>
		<stop  offset="1" style="stop-color:#DB0033"/>
	</linearGradient>
	<path class="st7" d="M1322,656.7l-137.2,42.7l68.9,65.3C1279.1,730.4,1301.9,694.3,1322,656.7z"/>
	
		<linearGradient id="SVGID_7_" gradientUnits="userSpaceOnUse" x1="480.42" y1="259.0551" x2="1431" y2="259.0551" gradientTransform="matrix(1 0 0 -1 0 1080)">
		<stop  offset="0" style="stop-color:#FF4B2B"/>
		<stop  offset="1" style="stop-color:#DB0033"/>
	</linearGradient>
	<path class="st8" d="M1235.2,788.8l-70.5-66.7l-58.2,197.6C1153.8,880.7,1196.9,836.8,1235.2,788.8z"/>
	
		<linearGradient id="SVGID_8_" gradientUnits="userSpaceOnUse" x1="449.7" y1="259.0551" x2="1475.6799" y2="259.0551" gradientTransform="matrix(1 0 0 -1 0 1080)">
		<stop  offset="0" style="stop-color:#FF4B2B"/>
		<stop  offset="1" style="stop-color:#DB0033"/>
	</linearGradient>
	<path class="st9" d="M1235.2,788.8l-70.5-66.7l-58.2,197.6C1153.8,880.7,1196.9,836.8,1235.2,788.8z"/>
	
		<linearGradient id="SVGID_9_" gradientUnits="userSpaceOnUse" x1="480.42" y1="536.0956" x2="1430.9989" y2="536.0956" gradientTransform="matrix(1 0 0 -1 0 1080)">
		<stop  offset="0" style="stop-color:#FF4B2B"/>
		<stop  offset="1" style="stop-color:#DB0033"/>
	</linearGradient>
	<path class="st10" d="M1430.1,197.9c-498-291.7-949.7,0-949.7,0c28.5,604.7,480.2,821.7,480.2,821.7c25-14.1,48.6-28.7,71-43.8
		L745,302.5c-2.9-6.7,0.3-14.4,7-17.3c3.2-1.4,6.9-1.4,10.2-0.1l613.6,250.3C1442.3,349.9,1430.1,197.9,1430.1,197.9z"/>
	
		<linearGradient id="SVGID_10_" gradientUnits="userSpaceOnUse" x1="449.7" y1="536.0956" x2="1475.6799" y2="536.0956" gradientTransform="matrix(1 0 0 -1 0 1080)">
		<stop  offset="0" style="stop-color:#FF4B2B"/>
		<stop  offset="1" style="stop-color:#DB0033"/>
	</linearGradient>
	<path class="st11" d="M1430.1,197.9c-498-291.7-949.7,0-949.7,0c28.5,604.7,480.2,821.7,480.2,821.7c25-14.1,48.6-28.7,71-43.8
		L745,302.5c-2.9-6.7,0.3-14.4,7-17.3c3.2-1.4,6.9-1.4,10.2-0.1l613.6,250.3C1442.3,349.9,1430.1,197.9,1430.1,197.9z"/>
	
		<linearGradient id="SVGID_11_" gradientUnits="userSpaceOnUse" x1="480.42" y1="440.135" x2="1431" y2="440.135" gradientTransform="matrix(1 0 0 -1 0 1080)">
		<stop  offset="0" style="stop-color:#FF4B2B"/>
		<stop  offset="1" style="stop-color:#DB0033"/>
	</linearGradient>
	<path class="st12" d="M788.2,335.5l259.2,608.8l78.9-267.7c1.2-3.9,4.2-7,8.1-8.2l214.8-66.8c4.8-10.6,9.3-21.2,13.5-31.7
		L788.2,335.5z M1038.7,810.7c-1.6,0.7-3.3,1-5.1,1.1c-5.3,0-10.1-3.1-12.2-8l-7-16.3c-1.9-1.3-3.4-3.1-4.3-5.3l-91.2-214.3
		c-2.6-6.2,0.3-13.4,6.5-16c4.7-2,10.1-0.8,13.6,2.9c3.7,1.2,6.6,3.9,8.1,7.4l98.5,231.3C1048.5,800.1,1045.4,807.9,1038.7,810.7
		L1038.7,810.7z"/>
	
		<linearGradient id="SVGID_12_" gradientUnits="userSpaceOnUse" x1="449.7" y1="440.135" x2="1475.6799" y2="440.135" gradientTransform="matrix(1 0 0 -1 0 1080)">
		<stop  offset="0" style="stop-color:#FF4B2B"/>
		<stop  offset="1" style="stop-color:#DB0033"/>
	</linearGradient>
	<path class="st13" d="M788.2,335.5l259.2,608.8l78.9-267.7c1.2-3.9,4.2-7,8.1-8.2l214.8-66.8c4.8-10.6,9.3-21.2,13.5-31.7
		L788.2,335.5z M1038.7,810.7c-1.6,0.7-3.3,1-5.1,1.1c-5.3,0-10.1-3.1-12.2-8l-7-16.3c-1.9-1.3-3.4-3.1-4.3-5.3l-91.2-214.3
		c-2.6-6.2,0.3-13.4,6.5-16c4.7-2,10.1-0.8,13.6,2.9c3.7,1.2,6.6,3.9,8.1,7.4l98.5,231.3C1048.5,800.1,1045.4,807.9,1038.7,810.7
		L1038.7,810.7z"/>
	<path class="st1" d="M1349.1,601.5l-214.8,66.8c-3.9,1.2-6.9,4.3-8.1,8.2l-78.9,267.7L788.2,335.5l574.5,234.4l35.3,14.4
		c1.3-3.2,2.7-6.4,4-9.6l-620-252.9l279.7,657.1l85.1-289c1.2-4.2,4.5-7.5,8.7-8.9l231.8-72.2c3.3-7.4,6.5-14.8,9.6-22.2
		L1349.1,601.5z"/>
	
		<linearGradient id="SVGID_13_" gradientUnits="userSpaceOnUse" x1="449.7" y1="429.8" x2="1475.6799" y2="429.8" gradientTransform="matrix(1 0 0 -1 0 1080)">
		<stop  offset="0" style="stop-color:#FF4B2B"/>
		<stop  offset="1" style="stop-color:#DB0033"/>
	</linearGradient>
	<path class="st14" d="M1349.1,601.5l-214.8,66.8c-3.9,1.2-6.9,4.3-8.1,8.2l-78.9,267.7L788.2,335.5l574.5,234.4l35.3,14.4
		c1.3-3.2,2.7-6.4,4-9.6l-620-252.9l279.7,657.1l85.1-289c1.2-4.2,4.5-7.5,8.7-8.9l231.8-72.2c3.3-7.4,6.5-14.8,9.6-22.2
		L1349.1,601.5z"/>
	<path class="st1" d="M929.9,555.2c2.9-1.2,6.2-1.4,9.2-0.4c-4.6-5-12.3-5.3-17.3-0.7c-3.8,3.5-5,9-2.9,13.8l91.2,214.3
		c0.9,2.1,2.4,4,4.3,5.3l-91.5-214.9C920,565.8,923.2,558.1,929.9,555.2z"/>
	
		<linearGradient id="SVGID_14_" gradientUnits="userSpaceOnUse" x1="449.7" y1="410.853" x2="1475.6799" y2="410.853" gradientTransform="matrix(1 0 0 -1 0 1080)">
		<stop  offset="0" style="stop-color:#FF4B2B"/>
		<stop  offset="1" style="stop-color:#DB0033"/>
	</linearGradient>
	<path class="st15" d="M929.9,555.2c2.9-1.2,6.2-1.4,9.2-0.4c-4.6-5-12.3-5.3-17.3-0.7c-3.8,3.5-5,9-2.9,13.8l91.2,214.3
		c0.9,2.1,2.4,4,4.3,5.3l-91.5-214.9C920,565.8,923.2,558.1,929.9,555.2z"/>
	<path class="st1" d="M1261.8,814.1l2.5-3.1l-98.3-93.1l-1.2,4.3l70.5,66.7L1261.8,814.1z"/>
	
		<linearGradient id="SVGID_15_" gradientUnits="userSpaceOnUse" x1="449.7" y1="314.01" x2="1475.6799" y2="314.01" gradientTransform="matrix(1 0 0 -1 0 1080)">
		<stop  offset="0" style="stop-color:#FF4B2B"/>
		<stop  offset="1" style="stop-color:#DB0033"/>
	</linearGradient>
	<path class="st16" d="M1261.8,814.1l2.5-3.1l-98.3-93.1l-1.2,4.3l70.5,66.7L1261.8,814.1z"/>
	<path class="st1" d="M1088.2,981.6l18.2-61.9l58.2-197.6l1.2-4.3l-15.4-14.6c-5.2-5.1-5.4-13.4-0.3-18.7c5-5.1,13.2-5.4,18.4-0.5
		l16.1,15.3l137.2-42.7l50-15.6l1.2-0.4c5.3-10.8,10.4-21.6,15.2-32.4l-1.2,0.4l-231.8,72.2c-4.2,1.3-7.5,4.6-8.7,8.9l-85.1,289
		L781.8,321.7l620,252.9l0.8,0.3c3.3-8.2,6.5-16.4,9.6-24.6l-0.9-0.4l-35.7-14.6L762.1,285.1c-6.7-2.8-14.4,0.5-17.2,7.2
		c-1.3,3.3-1.3,6.9,0.1,10.2l286.6,673.2l15.1,35.5l0.2,0.5c14.1-9.5,27.8-19.3,41-29.2L1088.2,981.6z"/>
	<path class="st1" d="M947.2,562.2c-2.9-6.7-10.6-9.8-17.3-7c-6.7,2.9-9.8,10.6-7,17.3l91.5,214.9l7,16.3c2.1,4.9,6.9,8,12.2,8
		c1.7,0,3.5-0.4,5.1-1.1c6.7-2.8,9.8-10.6,7-17.3c0,0,0,0,0,0L947.2,562.2z"/>
	<path class="st1" d="M1253.7,764.7l-68.9-65.3l-16.1-15.3c-5.4-4.9-13.7-4.6-18.6,0.7c-4.9,5.3-4.6,13.4,0.5,18.4l15.5,14.6
		l98.3,93.1l0.6,0.5c5.6-7,11-13.9,16.2-21l-0.6-0.5L1253.7,764.7z"/>
</g>
<path d="M877.6,815.1L877.6,815.1c-14.8-14.8-38.3-14.8-52.7,0l-64.7,64.7l-64.7-64.7c-14.8-14.8-38.3-14.8-52.7,0l0,0
	c-14.8,14.8-14.8,38.3,0,52.7l64.7,64.7l-64.7,64.7c-14.8,14.8-14.8,38.3,0,52.7c14.8,14.8,38.3,14.8,52.7,0l64.7-64.7l64.7,64.7
	c14.8,14.8,38.3,14.8,52.7,0c14.8-14.8,14.8-38.3,0-52.7l-64.7-64.7l64.7-64.7C892.3,853.4,892.3,829.5,877.6,815.1z"/>
</svg>
