<?xml version="1.0" encoding="utf-8"?>
<!-- Generator: Adobe Illustrator 22.1.0, SVG Export Plug-In . SVG Version: 6.00 Build 0)  -->
<svg version="1.1" id="Layer_1" xmlns="http://www.w3.org/2000/svg" xmlns:xlink="http://www.w3.org/1999/xlink" x="0px" y="0px"
	 viewBox="0 0 1920 1080" style="enable-background:new 0 0 1920 1080;" xml:space="preserve">
<style type="text/css">
	.st0{opacity:0.25;}
	.st1{fill:none;}
	.st2{fill:url(#SVGID_1_);}
	.st3{fill:url(#SVGID_2_);}
	.st4{fill:url(#SVGID_3_);}
	.st5{fill:url(#SVGID_4_);}
	.st6{fill:url(#SVGID_5_);}
	.st7{fill:url(#SVGID_6_);}
	.st8{fill:#FFFFFF;}
</style>
<title>Artboard 29</title>
<g id="Layer_12" class="st0">
	<path class="st1" d="M1359.2,691l0.8,0.4c20.3-36.4,38.4-74.1,53.9-112.8l-0.8-0.3C1397.7,617.1,1379.6,654.7,1359.2,691z"/>
	
		<linearGradient id="SVGID_1_" gradientUnits="userSpaceOnUse" x1="452" y1="550.6801" x2="1487.42" y2="550.6801" gradientTransform="matrix(1 0 0 -1 0 1080)">
		<stop  offset="0" style="stop-color:#FF4B2B"/>
		<stop  offset="1" style="stop-color:#DB0033"/>
	</linearGradient>
	<path class="st2" d="M831.1,466.7c-34.6,0-62.6,28-62.6,62.6s28,62.6,62.6,62.6s62.6-28,62.6-62.6c0-11-2.9-21.8-8.4-31.3
		C874.1,478.6,853.5,466.7,831.1,466.7z M871.3,540.2c-5.3,0-9.7-4.3-9.7-9.7c0-20.2-20.2-30.6-28.8-30.6c-5.3,0-9.7-4.3-9.7-9.7
		c0-5.3,4.3-9.7,9.7-9.7c16.8,0,48.1,17.1,48.1,49.9C881,535.9,876.6,540.2,871.3,540.2C871.3,540.2,871.3,540.2,871.3,540.2z"/>
	
		<linearGradient id="SVGID_2_" gradientUnits="userSpaceOnUse" x1="452" y1="465.8106" x2="1487.42" y2="465.8106" gradientTransform="matrix(1 0 0 -1 0 1080)">
		<stop  offset="0" style="stop-color:#FF4B2B"/>
		<stop  offset="1" style="stop-color:#DB0033"/>
	</linearGradient>
	<path class="st3" d="M1171,674.6c33.4-9.1,53.1-43.4,44-76.8c-9.1-33.4-43.4-53.1-76.8-44c-33.4,9.1-53.1,43.4-44,76.8
		c2.9,10.6,8.5,20.3,16.3,28C1126.4,674.4,1149.4,680.5,1171,674.6z M1146.7,565.8c16.7-2.1,49.9,10.9,54,43.4
		c0.6,5.3-3.2,10.1-8.6,10.7c-5.2,0.6-9.9-3.1-10.6-8.2c-2.6-20-23.9-27.8-32.4-26.7c-5.3,0.8-10.2-2.9-11-8.1s2.9-10.2,8.1-11
		C1146.4,565.8,1146.5,565.8,1146.7,565.8L1146.7,565.8z"/>
	
		<linearGradient id="SVGID_3_" gradientUnits="userSpaceOnUse" x1="452" y1="287.9708" x2="1487.42" y2="287.9708" gradientTransform="matrix(1 0 0 -1 0 1080)">
		<stop  offset="0" style="stop-color:#FF4B2B"/>
		<stop  offset="1" style="stop-color:#DB0033"/>
	</linearGradient>
	<path class="st4" d="M879.2,785.4c-3.7,34.4,21.2,65.2,55.6,68.9c34.4,3.7,65.2-21.2,68.9-55.6s-21.2-65.2-55.6-68.9
		c-10.9-1.2-22,0.6-32,5C895.6,743.9,881.5,763.2,879.2,785.4z M934.7,742.4c16.6-2.7,50.2,9.2,55.5,41.6c0.9,5.3-2.7,10.3-8,11.1
		s-10.3-2.7-11.1-8c0,0,0-0.1,0-0.1c-3.2-19.9-24.8-27-33.3-25.6c-5.3,0.9-10.2-2.7-11.1-8S929.4,743.2,934.7,742.4L934.7,742.4z"/>
	
		<linearGradient id="SVGID_4_" gradientUnits="userSpaceOnUse" x1="452" y1="529.0985" x2="1487.447" y2="529.0985" gradientTransform="matrix(1 0 0 -1 0 1080)">
		<stop  offset="0" style="stop-color:#FF4B2B"/>
		<stop  offset="1" style="stop-color:#DB0033"/>
	</linearGradient>
	<path class="st5" d="M1321.4,681.5c-23.3-35.3-15.9-82.6,17.2-109l-115.2-174.8c-3.8,3.3-8,6.2-12.3,8.7
		c-36.6,21.2-83.4,11.1-107.9-23.5L906.4,496.9c7.3,16.9,8.7,35.7,3.9,53.5c-0.9,3.2-1.9,6.3-3.1,9.3l-9.2,17
		c-6.8,9.6-15.6,17.6-25.8,23.5c-0.6,0.4-1.2,0.7-1.9,1L919.3,713c33.1-9.2,68.5,3.2,88.7,31.1l81.1-80.8
		c-27.2-36.2-19.9-87.6,16.3-114.8c36.2-27.2,87.6-19.9,114.8,16.3c27.2,36.2,19.9,87.6-16.3,114.8c-30.3,22.8-72.2,21.8-101.4-2.3
		l-84.9,84.5c16.7,42.1-3.9,89.8-46,106.4c-42.1,16.7-89.8-3.9-106.4-46c-15.2-38.2,0.3-81.7,36.2-101.8l-49-112
		c-43.7,11.9-88.8-13.9-100.7-57.6c-11.9-43.7,13.9-88.8,57.6-100.7c7.1-1.9,14.4-2.9,21.8-2.9c25.8,0,50.1,12.2,65.6,32.8
		L1093.8,366c-16.8-42,3.7-89.7,45.7-106.5s89.7,3.7,106.5,45.7c10.3,25.8,6.8,55.1-9.2,77.7L1355,562.2
		c20.6-9.6,44.2-10.3,65.3-1.8c80.2-210.5,66.2-386.4,66.2-386.4C944-143.7,452,174,452,174c31,658.7,523,895,523,895
		c181.1-101.9,298.5-232,374.5-361.2C1338.2,701.5,1328.5,692.4,1321.4,681.5z"/>
	
		<linearGradient id="SVGID_5_" gradientUnits="userSpaceOnUse" x1="452" y1="447.5575" x2="1487.42" y2="447.5575" gradientTransform="matrix(1 0 0 -1 0 1080)">
		<stop  offset="0" style="stop-color:#FF4B2B"/>
		<stop  offset="1" style="stop-color:#DB0033"/>
	</linearGradient>
	<path class="st6" d="M1355.3,584.2c-28.9,19-36.8,57.9-17.8,86.7c5.5,8.4,12.9,15.3,21.7,20.1c20.4-36.4,38.4-74,54-112.6
		C1394.2,570.7,1372.5,572.8,1355.3,584.2z"/>
	
		<linearGradient id="SVGID_6_" gradientUnits="userSpaceOnUse" x1="452" y1="744.41" x2="1487.42" y2="744.41" gradientTransform="matrix(1 0 0 -1 0 1080)">
		<stop  offset="0" style="stop-color:#FF4B2B"/>
		<stop  offset="1" style="stop-color:#DB0033"/>
	</linearGradient>
	<path class="st7" d="M1169.8,273c-34.6,0-62.6,28.1-62.5,62.7s28.1,62.6,62.7,62.5s62.6-28.1,62.5-62.7c0-11-2.9-21.8-8.4-31.3
		C1212.9,284.9,1192.2,273,1169.8,273z M1210,346.5c-5.3,0-9.7-4.3-9.7-9.7v0c0-20.2-20.2-30.6-28.8-30.6c-5.3,0-9.7-4.3-9.7-9.7
		c0-5.3,4.3-9.7,9.7-9.7c0,0,0,0,0,0c16.8,0,48.1,17.1,48.1,49.9C1219.7,342.1,1215.4,346.4,1210,346.5
		C1210,346.5,1210,346.5,1210,346.5z"/>
	<path class="st8" d="M832.8,480.6c-5.3,0-9.7,4.3-9.7,9.7c0,5.3,4.3,9.7,9.7,9.7c8.6,0,28.8,10.4,28.8,30.6c0,5.3,4.3,9.7,9.7,9.7
		c5.3,0,9.7-4.3,9.7-9.7C881,497.7,849.6,480.6,832.8,480.6z"/>
	<path class="st8" d="M1171.6,286.9c-5.3,0-9.7,4.3-9.7,9.7c0,5.3,4.3,9.7,9.7,9.7c8.6,0,28.8,10.4,28.8,30.6c-0.2,5.3,4,9.8,9.4,10
		c5.3,0.2,9.8-4,10-9.4c0-0.2,0-0.4,0-0.6C1219.7,304,1188.4,286.9,1171.6,286.9z"/>
	<path class="st8" d="M1240.8,294.5c-22.6-39.2-72.7-52.6-111.9-30c-35.3,20.4-50.3,63.7-35.1,101.5L896.7,480.2
		c-27.2-36.2-78.5-43.5-114.7-16.4c-36.2,27.2-43.5,78.5-16.4,114.7c15.5,20.6,39.8,32.8,65.6,32.8c7.1,0,14.2-0.9,21.1-2.8
		l-2.3-5.2l17.7-7.9l2.6,5.8c0.6-0.3,1.2-0.7,1.9-1c10.2-5.9,19-13.9,25.8-23.5l9.2-17c1.2-3,2.3-6.2,3.1-9.3
		c4.8-17.8,3.4-36.6-3.9-53.5L1103.1,383c24.5,34.5,71.3,44.7,107.9,23.5c4.4-2.5,8.5-5.5,12.3-8.7l-9.9-15l16.2-10.7l7.2,10.9
		C1255.3,356.9,1256.9,322.3,1240.8,294.5L1240.8,294.5z M891.6,545.4c-7.3,27.4-32.1,46.4-60.4,46.5c-34.6,0-62.6-28-62.7-62.5
		c0-34.6,28-62.6,62.5-62.7c22.3,0,43,11.9,54.2,31.2C893.7,512.3,896,529.4,891.6,545.4z M1230.4,351.7
		c-7.3,27.4-32.1,46.4-60.4,46.5c-34.6,0-62.6-28-62.7-62.5c0-34.6,28-62.6,62.5-62.7c22.3,0,43,11.9,54.2,31.2
		C1232.5,318.5,1234.7,335.6,1230.4,351.7z"/>
	<path class="st8" d="M1359.2,691c-30.2-16.9-41-55-24.1-85.2c15.4-27.5,48.9-39.3,78.1-27.5l0.8,0.3c2.4-6,4.8-12,7.1-18l-0.7-0.3
		c-21.1-8.5-44.7-7.8-65.3,1.8L1236.8,383l-7.2-10.9l-16.2,10.7l9.9,15l115.2,174.7c-33,26.4-40.5,73.7-17.2,109
		c7.2,10.9,16.8,19.9,28.2,26.3l0.9,0.5c3.3-5.6,6.5-11.2,9.6-16.8L1359.2,691z"/>
	<path class="st8" d="M937.8,761.5c8.5-1.4,30,5.7,33.3,25.6c0.8,5.3,5.8,8.9,11.1,8.1s8.9-5.8,8.1-11.1c0,0,0-0.1,0-0.1
		c-5.2-32.3-38.9-44.3-55.5-41.6c-5.3,0.9-8.9,5.8-8,11.1S932.5,762.3,937.8,761.5L937.8,761.5z"/>
	<path class="st8" d="M850.1,603.3l2.3,5.2l49,112c-36.9,20.7-52.1,66.1-34.9,104.7c18.3,41.4,66.7,60,108.1,41.7c0,0,0,0,0,0
		c40.2-17.8,59.1-64.1,42.9-105l-5.8,5.8L998,754l9.9-9.9c-20.1-27.9-55.5-40.3-88.7-31.1l-48.9-111.8l-2.6-5.8L850.1,603.3z
		 M998.6,766.6c14,31.6-0.2,68.6-31.8,82.6c-31.6,14-68.6-0.2-82.6-31.8c-14-31.6,0.2-68.6,31.8-82.6c0,0,0,0,0,0
		C947.6,720.8,984.5,735,998.6,766.6C998.6,766.5,998.6,766.6,998.6,766.6z"/>
	<path class="st8" d="M1149.1,585c8.5-1.1,29.8,6.7,32.4,26.7c0.8,5.3,5.7,9,11,8.2c5.2-0.8,8.8-5.5,8.2-10.6
		c-4.2-32.5-37.4-45.5-54-43.4c-5.3,0.6-9.2,5.3-8.6,10.6s5.3,9.2,10.6,8.6C1148.9,585,1149.1,585,1149.1,585L1149.1,585z"/>
	<path class="st8" d="M1011.8,767.7l5.8-5.8l84.9-84.5c32.6,27,80.4,24.6,110.2-5.4c31.9-32.1,31.7-84-0.4-115.9
		c-32.1-31.9-84-31.8-115.9,0.3c-28.7,28.9-31.9,74.5-7.4,107l-81.1,80.8l-9.9,9.9L1011.8,767.7z M1110.2,570.1
		c24.4-24.5,64-24.7,88.5-0.3c24.5,24.4,24.7,64,0.3,88.5c-24.4,24.5-64,24.7-88.5,0.3c0,0,0,0,0,0
		C1085.9,634.3,1085.8,594.7,1110.2,570.1C1110.1,570.1,1110.2,570.1,1110.2,570.1L1110.2,570.1z"/>
</g>
</svg>
