<?xml version="1.0" encoding="utf-8"?>
<!-- Generator: Adobe Illustrator 22.1.0, SVG Export Plug-In . SVG Version: 6.00 Build 0)  -->
<svg version="1.1" id="Layer_1" xmlns="http://www.w3.org/2000/svg" xmlns:xlink="http://www.w3.org/1999/xlink" x="0px" y="0px"
	 viewBox="0 0 1920 1080" style="enable-background:new 0 0 1920 1080;" xml:space="preserve">
<style type="text/css">
	.st0{fill:none;}
	.st1{fill:url(#SVGID_1_);}
	.st2{fill:url(#SVGID_2_);}
	.st3{fill:url(#SVGID_3_);}
	.st4{fill:#FFFFFF;}
</style>
<title>Artboard 10</title>
<g id="Layer_5_copy">
	<path class="st0" d="M1186,893.3l0.1,0.2c6.4-6.4,12.8-12.8,18.9-19.2v-0.1C1198.8,880.6,1192.5,887,1186,893.3z"/>
	<path class="st0" d="M1222.3,855.7c5.4-6,10.8-12,16-18C1233.1,843.7,1227.8,849.7,1222.3,855.7z"/>
	
		<linearGradient id="SVGID_1_" gradientUnits="userSpaceOnUse" x1="442" y1="641.0836" x2="1477.42" y2="641.0836" gradientTransform="matrix(1 0 0 -1 0 1080)">
		<stop  offset="0" style="stop-color:#FF4B2B"/>
		<stop  offset="1" style="stop-color:#DB0033"/>
	</linearGradient>
	<path class="st1" d="M1238.8,521.1c45.3-114-10.6-243.6-124.6-288.9s-243.6,10.6-288.9,124.6s10.6,243.6,124.6,288.9
		S1193.5,635.1,1238.8,521.1z M1106.1,276.6c-6-2.3-9.1-9-6.8-15c2.3-6,9-9.1,15-6.8c0.1,0.1,0.3,0.1,0.4,0.2
		c32.9,13.1,68,47.8,89.6,88.4c27.1,51.1,30.8,107.4,10.6,158.4c-2.4,6-9.1,8.9-15.1,6.5c-6-2.4-8.9-9.1-6.5-15.1
		C1233.6,391.4,1156.9,296.7,1106.1,276.6z"/>
	
		<linearGradient id="SVGID_2_" gradientUnits="userSpaceOnUse" x1="442" y1="263.8429" x2="1477.42" y2="263.8429" gradientTransform="matrix(1 0 0 -1 0 1080)">
		<stop  offset="0" style="stop-color:#FF4B2B"/>
		<stop  offset="1" style="stop-color:#DB0033"/>
	</linearGradient>
	<path class="st2" d="M1205,874.2l-55.1-127.7c-2.7-6.3-10.1-9.3-16.4-6.5c-6.3,2.7-9.3,10.1-6.5,16.4l59.1,137
		C1192.5,887,1198.8,880.6,1205,874.2z"/>
	
		<linearGradient id="SVGID_3_" gradientUnits="userSpaceOnUse" x1="442" y1="540.1" x2="1477.4169" y2="540.1" gradientTransform="matrix(1 0 0 -1 0 1080)">
		<stop  offset="0" style="stop-color:#FF4B2B"/>
		<stop  offset="1" style="stop-color:#DB0033"/>
	</linearGradient>
	<path class="st3" d="M1105.1,738.2c2.3-5.7,6-10.8,10.9-14.7l-20.4-47.3c-51,13.8-105.2,10.7-154.3-8.9
		c-126-50-187.7-193.2-137.7-319.2s193.2-187.7,319.2-137.7s187.7,193.2,137.7,319.2c-25.8,65-78.1,115.8-143.7,139.9l19.9,46.2
		c14.9-0.7,28.7,7.9,34.6,21.6l51.1,118.4c5.5-6,10.8-12,16-18c141-163.3,199.8-343.7,223.9-476.8c20.7-117.3,14.3-197.9,14.3-197.9
		C934-154.7,442,163,442,163c31,658.7,523,895,523,895c79.2-44.6,146.3-94.5,203-147.5l-62.5-144.9
		C1101.7,756.9,1101.6,747,1105.1,738.2z"/>
	<path class="st4" d="M1186,893.3l-59.1-137c-2.7-6.3,0.2-13.7,6.5-16.4c6.3-2.7,13.7,0.2,16.4,6.5l55.1,127.8v0.1
		c5.9-6.2,11.7-12.4,17.3-18.6v0l-51.1-118.4c-5.9-13.7-19.7-22.3-34.6-21.6l-19.9-46.2c65.6-24,117.9-74.9,143.7-139.8
		c50-126-11.7-269.1-137.7-319.2s-269.2,11.7-319.2,137.7s11.7,269.1,137.7,319.2c49.1,19.6,103.3,22.7,154.3,8.9l20.4,47.3
		c-12.5,10.1-16.8,27.2-10.4,42l62.5,145l0.1,0.2c6.1-5.7,12.1-11.5,17.9-17.2L1186,893.3z M949.9,645.7
		c-114-45.3-169.9-174.9-124.6-288.9s174.9-169.9,288.9-124.6s169.9,174.9,124.6,288.9S1063.9,691,949.9,645.7z"/>
	<path class="st4" d="M1193.3,493c-2.4,6,0.5,12.7,6.5,15.1c6,2.4,12.7-0.5,15.1-6.5l0,0c20.2-51,16.5-107.2-10.6-158.4
		c-21.5-40.6-56.7-75.3-89.6-88.4c-5.9-2.5-12.8,0.3-15.3,6.2c-2.5,5.9,0.3,12.8,6.2,15.3c0.1,0.1,0.3,0.1,0.4,0.2
		C1156.9,296.7,1233.6,391.4,1193.3,493z"/>
</g>
<path d="M874.3,812.1L874.3,812.1c-14.8-14.8-38.3-14.8-52.7,0l-64.7,64.7l-64.7-64.7c-14.8-14.8-38.3-14.8-52.7,0l0,0
	c-14.8,14.8-14.8,38.3,0,52.7l64.7,64.7l-64.7,64.7c-14.8,14.8-14.8,38.3,0,52.7c14.8,14.8,38.3,14.8,52.7,0l64.7-64.7l64.7,64.7
	c14.8,14.8,38.3,14.8,52.7,0c14.8-14.8,14.8-38.3,0-52.7l-64.7-64.7l64.7-64.7C889.1,850.4,889.1,826.5,874.3,812.1z"/>
</svg>
